ISO-10303-21;
HEADER;
FILE_DESCRIPTION(('Mini LCD smart projector','AP214 exchange model'),'2;1');
FILE_NAME('mini-smart-projector.stp','2026-09-03T00:00:00',('Youxi'),('Youxi'),'','Creo compatible','');
FILE_SCHEMA(('AUTOMOTIVE_DESIGN'));
ENDSEC;
DATA;
#1=APPLICATION_CONTEXT('automotive design');
#2=APPLICATION_PROTOCOL_DEFINITION('international standard','automotive_design',2001,#1);
#3=PRODUCT_CONTEXT('',#1,'mechanical');
#4=PRODUCT('MINI_SMART_PROJECTOR','MINI_SMART_PROJECTOR','214x168x88 mm mini LCD smart projector',(#3));
#5=PRODUCT_DEFINITION_FORMATION_WITH_SPECIFIED_SOURCE('1','',#4,.MADE.);
#6=PRODUCT_DEFINITION_CONTEXT('part definition',#1,'design');
#7=PRODUCT_DEFINITION('design','',#5,#6);
#8=PRODUCT_DEFINITION_SHAPE('','',#7);
#9=SHAPE_REPRESENTATION_CONTEXT(3,'3D context','');
#10=(LENGTH_UNIT()NAMED_UNIT(*)SI_UNIT(.MILLI.,.METRE.));
#11=(NAMED_UNIT(*)PLANE_ANGLE_UNIT()SI_UNIT($,.RADIAN.));
#12=(NAMED_UNIT(*)SOLID_ANGLE_UNIT()SI_UNIT($,.STERADIAN.));
#13=UNCERTAINTY_MEASURE_WITH_UNIT(LENGTH_MEASURE(0.01),#10,'distance_accuracy_value','');
#14=GEOMETRIC_REPRESENTATION_CONTEXT(3)GLOBAL_UNCERTAINTY_ASSIGNED_CONTEXT((#13))GLOBAL_UNIT_ASSIGNED_CONTEXT((#10,#11,#12))REPRESENTATION_CONTEXT('','');
#15=CARTESIAN_POINT('',(-107.0000,-84.0000,-38.0000));
#16=CARTESIAN_POINT('',(107.0000,-84.0000,-38.0000));
#17=CARTESIAN_POINT('',(107.0000,84.0000,-38.0000));
#18=CARTESIAN_POINT('',(-107.0000,84.0000,-38.0000));
#19=CARTESIAN_POINT('',(-107.0000,-84.0000,44.0000));
#20=CARTESIAN_POINT('',(107.0000,-84.0000,44.0000));
#21=CARTESIAN_POINT('',(107.0000,84.0000,44.0000));
#22=CARTESIAN_POINT('',(-107.0000,84.0000,44.0000));
#23=POLY_LOOP('',(#15,#18,#17,#16));
#24=FACE_OUTER_BOUND('',#23,.T.);
#25=FACE('',(#24));
#26=POLY_LOOP('',(#19,#20,#21,#22));
#27=FACE_OUTER_BOUND('',#26,.T.);
#28=FACE('',(#27));
#29=POLY_LOOP('',(#15,#16,#20,#19));
#30=FACE_OUTER_BOUND('',#29,.T.);
#31=FACE('',(#30));
#32=POLY_LOOP('',(#16,#17,#21,#20));
#33=FACE_OUTER_BOUND('',#32,.T.);
#34=FACE('',(#33));
#35=POLY_LOOP('',(#17,#18,#22,#21));
#36=FACE_OUTER_BOUND('',#35,.T.);
#37=FACE('',(#36));
#38=POLY_LOOP('',(#18,#15,#19,#22));
#39=FACE_OUTER_BOUND('',#38,.T.);
#40=FACE('',(#39));
#41=CLOSED_SHELL('',(#25,#28,#31,#34,#37,#40));
#42=FACETED_BREP('PROJECTOR_HOUSING',#41);
#43=CARTESIAN_POINT('',(-18.0000,-88.0000,2.0000));
#44=CARTESIAN_POINT('',(-18.9541,-88.0000,9.2469));
#45=CARTESIAN_POINT('',(-21.7513,-88.0000,16.0000));
#46=CARTESIAN_POINT('',(-26.2010,-88.0000,21.7990));
#47=CARTESIAN_POINT('',(-32.0000,-88.0000,26.2487));
#48=CARTESIAN_POINT('',(-38.7531,-88.0000,29.0459));
#49=CARTESIAN_POINT('',(-46.0000,-88.0000,30.0000));
#50=CARTESIAN_POINT('',(-53.2469,-88.0000,29.0459));
#51=CARTESIAN_POINT('',(-60.0000,-88.0000,26.2487));
#52=CARTESIAN_POINT('',(-65.7990,-88.0000,21.7990));
#53=CARTESIAN_POINT('',(-70.2487,-88.0000,16.0000));
#54=CARTESIAN_POINT('',(-73.0459,-88.0000,9.2469));
#55=CARTESIAN_POINT('',(-74.0000,-88.0000,2.0000));
#56=CARTESIAN_POINT('',(-73.0459,-88.0000,-5.2469));
#57=CARTESIAN_POINT('',(-70.2487,-88.0000,-12.0000));
#58=CARTESIAN_POINT('',(-65.7990,-88.0000,-17.7990));
#59=CARTESIAN_POINT('',(-60.0000,-88.0000,-22.2487));
#60=CARTESIAN_POINT('',(-53.2469,-88.0000,-25.0459));
#61=CARTESIAN_POINT('',(-46.0000,-88.0000,-26.0000));
#62=CARTESIAN_POINT('',(-38.7531,-88.0000,-25.0459));
#63=CARTESIAN_POINT('',(-32.0000,-88.0000,-22.2487));
#64=CARTESIAN_POINT('',(-26.2010,-88.0000,-17.7990));
#65=CARTESIAN_POINT('',(-21.7513,-88.0000,-12.0000));
#66=CARTESIAN_POINT('',(-18.9541,-88.0000,-5.2469));
#67=CARTESIAN_POINT('',(-18.0000,-83.0000,2.0000));
#68=CARTESIAN_POINT('',(-18.9541,-83.0000,9.2469));
#69=CARTESIAN_POINT('',(-21.7513,-83.0000,16.0000));
#70=CARTESIAN_POINT('',(-26.2010,-83.0000,21.7990));
#71=CARTESIAN_POINT('',(-32.0000,-83.0000,26.2487));
#72=CARTESIAN_POINT('',(-38.7531,-83.0000,29.0459));
#73=CARTESIAN_POINT('',(-46.0000,-83.0000,30.0000));
#74=CARTESIAN_POINT('',(-53.2469,-83.0000,29.0459));
#75=CARTESIAN_POINT('',(-60.0000,-83.0000,26.2487));
#76=CARTESIAN_POINT('',(-65.7990,-83.0000,21.7990));
#77=CARTESIAN_POINT('',(-70.2487,-83.0000,16.0000));
#78=CARTESIAN_POINT('',(-73.0459,-83.0000,9.2469));
#79=CARTESIAN_POINT('',(-74.0000,-83.0000,2.0000));
#80=CARTESIAN_POINT('',(-73.0459,-83.0000,-5.2469));
#81=CARTESIAN_POINT('',(-70.2487,-83.0000,-12.0000));
#82=CARTESIAN_POINT('',(-65.7990,-83.0000,-17.7990));
#83=CARTESIAN_POINT('',(-60.0000,-83.0000,-22.2487));
#84=CARTESIAN_POINT('',(-53.2469,-83.0000,-25.0459));
#85=CARTESIAN_POINT('',(-46.0000,-83.0000,-26.0000));
#86=CARTESIAN_POINT('',(-38.7531,-83.0000,-25.0459));
#87=CARTESIAN_POINT('',(-32.0000,-83.0000,-22.2487));
#88=CARTESIAN_POINT('',(-26.2010,-83.0000,-17.7990));
#89=CARTESIAN_POINT('',(-21.7513,-83.0000,-12.0000));
#90=CARTESIAN_POINT('',(-18.9541,-83.0000,-5.2469));
#91=POLY_LOOP('',(#66,#65,#64,#63,#62,#61,#60,#59,#58,#57,#56,#55,#54,#53,#52,#51,#50,#49,#48,#47,#46,#45,#44,#43));
#92=FACE_OUTER_BOUND('',#91,.T.);
#93=FACE('',(#92));
#94=POLY_LOOP('',(#67,#68,#69,#70,#71,#72,#73,#74,#75,#76,#77,#78,#79,#80,#81,#82,#83,#84,#85,#86,#87,#88,#89,#90));
#95=FACE_OUTER_BOUND('',#94,.T.);
#96=FACE('',(#95));
#97=POLY_LOOP('',(#43,#44,#68,#67));
#98=FACE_OUTER_BOUND('',#97,.T.);
#99=FACE('',(#98));
#100=POLY_LOOP('',(#44,#45,#69,#68));
#101=FACE_OUTER_BOUND('',#100,.T.);
#102=FACE('',(#101));
#103=POLY_LOOP('',(#45,#46,#70,#69));
#104=FACE_OUTER_BOUND('',#103,.T.);
#105=FACE('',(#104));
#106=POLY_LOOP('',(#46,#47,#71,#70));
#107=FACE_OUTER_BOUND('',#106,.T.);
#108=FACE('',(#107));
#109=POLY_LOOP('',(#47,#48,#72,#71));
#110=FACE_OUTER_BOUND('',#109,.T.);
#111=FACE('',(#110));
#112=POLY_LOOP('',(#48,#49,#73,#72));
#113=FACE_OUTER_BOUND('',#112,.T.);
#114=FACE('',(#113));
#115=POLY_LOOP('',(#49,#50,#74,#73));
#116=FACE_OUTER_BOUND('',#115,.T.);
#117=FACE('',(#116));
#118=POLY_LOOP('',(#50,#51,#75,#74));
#119=FACE_OUTER_BOUND('',#118,.T.);
#120=FACE('',(#119));
#121=POLY_LOOP('',(#51,#52,#76,#75));
#122=FACE_OUTER_BOUND('',#121,.T.);
#123=FACE('',(#122));
#124=POLY_LOOP('',(#52,#53,#77,#76));
#125=FACE_OUTER_BOUND('',#124,.T.);
#126=FACE('',(#125));
#127=POLY_LOOP('',(#53,#54,#78,#77));
#128=FACE_OUTER_BOUND('',#127,.T.);
#129=FACE('',(#128));
#130=POLY_LOOP('',(#54,#55,#79,#78));
#131=FACE_OUTER_BOUND('',#130,.T.);
#132=FACE('',(#131));
#133=POLY_LOOP('',(#55,#56,#80,#79));
#134=FACE_OUTER_BOUND('',#133,.T.);
#135=FACE('',(#134));
#136=POLY_LOOP('',(#56,#57,#81,#80));
#137=FACE_OUTER_BOUND('',#136,.T.);
#138=FACE('',(#137));
#139=POLY_LOOP('',(#57,#58,#82,#81));
#140=FACE_OUTER_BOUND('',#139,.T.);
#141=FACE('',(#140));
#142=POLY_LOOP('',(#58,#59,#83,#82));
#143=FACE_OUTER_BOUND('',#142,.T.);
#144=FACE('',(#143));
#145=POLY_LOOP('',(#59,#60,#84,#83));
#146=FACE_OUTER_BOUND('',#145,.T.);
#147=FACE('',(#146));
#148=POLY_LOOP('',(#60,#61,#85,#84));
#149=FACE_OUTER_BOUND('',#148,.T.);
#150=FACE('',(#149));
#151=POLY_LOOP('',(#61,#62,#86,#85));
#152=FACE_OUTER_BOUND('',#151,.T.);
#153=FACE('',(#152));
#154=POLY_LOOP('',(#62,#63,#87,#86));
#155=FACE_OUTER_BOUND('',#154,.T.);
#156=FACE('',(#155));
#157=POLY_LOOP('',(#63,#64,#88,#87));
#158=FACE_OUTER_BOUND('',#157,.T.);
#159=FACE('',(#158));
#160=POLY_LOOP('',(#64,#65,#89,#88));
#161=FACE_OUTER_BOUND('',#160,.T.);
#162=FACE('',(#161));
#163=POLY_LOOP('',(#65,#66,#90,#89));
#164=FACE_OUTER_BOUND('',#163,.T.);
#165=FACE('',(#164));
#166=POLY_LOOP('',(#66,#43,#67,#90));
#167=FACE_OUTER_BOUND('',#166,.T.);
#168=FACE('',(#167));
#169=CLOSED_SHELL('',(#93,#96,#99,#102,#105,#108,#111,#114,#117,#120,#123,#126,#129,#132,#135,#138,#141,#144,#147,#150,#153,#156,#159,#162,#165,#168));
#170=FACETED_BREP('LENS_BEZEL',#169);
#171=CARTESIAN_POINT('',(-24.0000,-90.0000,2.0000));
#172=CARTESIAN_POINT('',(-24.7496,-90.0000,7.6940));
#173=CARTESIAN_POINT('',(-26.9474,-90.0000,13.0000));
#174=CARTESIAN_POINT('',(-30.4437,-90.0000,17.5563));
#175=CARTESIAN_POINT('',(-35.0000,-90.0000,21.0526));
#176=CARTESIAN_POINT('',(-40.3060,-90.0000,23.2504));
#177=CARTESIAN_POINT('',(-46.0000,-90.0000,24.0000));
#178=CARTESIAN_POINT('',(-51.6940,-90.0000,23.2504));
#179=CARTESIAN_POINT('',(-57.0000,-90.0000,21.0526));
#180=CARTESIAN_POINT('',(-61.5563,-90.0000,17.5563));
#181=CARTESIAN_POINT('',(-65.0526,-90.0000,13.0000));
#182=CARTESIAN_POINT('',(-67.2504,-90.0000,7.6940));
#183=CARTESIAN_POINT('',(-68.0000,-90.0000,2.0000));
#184=CARTESIAN_POINT('',(-67.2504,-90.0000,-3.6940));
#185=CARTESIAN_POINT('',(-65.0526,-90.0000,-9.0000));
#186=CARTESIAN_POINT('',(-61.5563,-90.0000,-13.5563));
#187=CARTESIAN_POINT('',(-57.0000,-90.0000,-17.0526));
#188=CARTESIAN_POINT('',(-51.6940,-90.0000,-19.2504));
#189=CARTESIAN_POINT('',(-46.0000,-90.0000,-20.0000));
#190=CARTESIAN_POINT('',(-40.3060,-90.0000,-19.2504));
#191=CARTESIAN_POINT('',(-35.0000,-90.0000,-17.0526));
#192=CARTESIAN_POINT('',(-30.4437,-90.0000,-13.5563));
#193=CARTESIAN_POINT('',(-26.9474,-90.0000,-9.0000));
#194=CARTESIAN_POINT('',(-24.7496,-90.0000,-3.6940));
#195=CARTESIAN_POINT('',(-24.0000,-87.0000,2.0000));
#196=CARTESIAN_POINT('',(-24.7496,-87.0000,7.6940));
#197=CARTESIAN_POINT('',(-26.9474,-87.0000,13.0000));
#198=CARTESIAN_POINT('',(-30.4437,-87.0000,17.5563));
#199=CARTESIAN_POINT('',(-35.0000,-87.0000,21.0526));
#200=CARTESIAN_POINT('',(-40.3060,-87.0000,23.2504));
#201=CARTESIAN_POINT('',(-46.0000,-87.0000,24.0000));
#202=CARTESIAN_POINT('',(-51.6940,-87.0000,23.2504));
#203=CARTESIAN_POINT('',(-57.0000,-87.0000,21.0526));
#204=CARTESIAN_POINT('',(-61.5563,-87.0000,17.5563));
#205=CARTESIAN_POINT('',(-65.0526,-87.0000,13.0000));
#206=CARTESIAN_POINT('',(-67.2504,-87.0000,7.6940));
#207=CARTESIAN_POINT('',(-68.0000,-87.0000,2.0000));
#208=CARTESIAN_POINT('',(-67.2504,-87.0000,-3.6940));
#209=CARTESIAN_POINT('',(-65.0526,-87.0000,-9.0000));
#210=CARTESIAN_POINT('',(-61.5563,-87.0000,-13.5563));
#211=CARTESIAN_POINT('',(-57.0000,-87.0000,-17.0526));
#212=CARTESIAN_POINT('',(-51.6940,-87.0000,-19.2504));
#213=CARTESIAN_POINT('',(-46.0000,-87.0000,-20.0000));
#214=CARTESIAN_POINT('',(-40.3060,-87.0000,-19.2504));
#215=CARTESIAN_POINT('',(-35.0000,-87.0000,-17.0526));
#216=CARTESIAN_POINT('',(-30.4437,-87.0000,-13.5563));
#217=CARTESIAN_POINT('',(-26.9474,-87.0000,-9.0000));
#218=CARTESIAN_POINT('',(-24.7496,-87.0000,-3.6940));
#219=POLY_LOOP('',(#194,#193,#192,#191,#190,#189,#188,#187,#186,#185,#184,#183,#182,#181,#180,#179,#178,#177,#176,#175,#174,#173,#172,#171));
#220=FACE_OUTER_BOUND('',#219,.T.);
#221=FACE('',(#220));
#222=POLY_LOOP('',(#195,#196,#197,#198,#199,#200,#201,#202,#203,#204,#205,#206,#207,#208,#209,#210,#211,#212,#213,#214,#215,#216,#217,#218));
#223=FACE_OUTER_BOUND('',#222,.T.);
#224=FACE('',(#223));
#225=POLY_LOOP('',(#171,#172,#196,#195));
#226=FACE_OUTER_BOUND('',#225,.T.);
#227=FACE('',(#226));
#228=POLY_LOOP('',(#172,#173,#197,#196));
#229=FACE_OUTER_BOUND('',#228,.T.);
#230=FACE('',(#229));
#231=POLY_LOOP('',(#173,#174,#198,#197));
#232=FACE_OUTER_BOUND('',#231,.T.);
#233=FACE('',(#232));
#234=POLY_LOOP('',(#174,#175,#199,#198));
#235=FACE_OUTER_BOUND('',#234,.T.);
#236=FACE('',(#235));
#237=POLY_LOOP('',(#175,#176,#200,#199));
#238=FACE_OUTER_BOUND('',#237,.T.);
#239=FACE('',(#238));
#240=POLY_LOOP('',(#176,#177,#201,#200));
#241=FACE_OUTER_BOUND('',#240,.T.);
#242=FACE('',(#241));
#243=POLY_LOOP('',(#177,#178,#202,#201));
#244=FACE_OUTER_BOUND('',#243,.T.);
#245=FACE('',(#244));
#246=POLY_LOOP('',(#178,#179,#203,#202));
#247=FACE_OUTER_BOUND('',#246,.T.);
#248=FACE('',(#247));
#249=POLY_LOOP('',(#179,#180,#204,#203));
#250=FACE_OUTER_BOUND('',#249,.T.);
#251=FACE('',(#250));
#252=POLY_LOOP('',(#180,#181,#205,#204));
#253=FACE_OUTER_BOUND('',#252,.T.);
#254=FACE('',(#253));
#255=POLY_LOOP('',(#181,#182,#206,#205));
#256=FACE_OUTER_BOUND('',#255,.T.);
#257=FACE('',(#256));
#258=POLY_LOOP('',(#182,#183,#207,#206));
#259=FACE_OUTER_BOUND('',#258,.T.);
#260=FACE('',(#259));
#261=POLY_LOOP('',(#183,#184,#208,#207));
#262=FACE_OUTER_BOUND('',#261,.T.);
#263=FACE('',(#262));
#264=POLY_LOOP('',(#184,#185,#209,#208));
#265=FACE_OUTER_BOUND('',#264,.T.);
#266=FACE('',(#265));
#267=POLY_LOOP('',(#185,#186,#210,#209));
#268=FACE_OUTER_BOUND('',#267,.T.);
#269=FACE('',(#268));
#270=POLY_LOOP('',(#186,#187,#211,#210));
#271=FACE_OUTER_BOUND('',#270,.T.);
#272=FACE('',(#271));
#273=POLY_LOOP('',(#187,#188,#212,#211));
#274=FACE_OUTER_BOUND('',#273,.T.);
#275=FACE('',(#274));
#276=POLY_LOOP('',(#188,#189,#213,#212));
#277=FACE_OUTER_BOUND('',#276,.T.);
#278=FACE('',(#277));
#279=POLY_LOOP('',(#189,#190,#214,#213));
#280=FACE_OUTER_BOUND('',#279,.T.);
#281=FACE('',(#280));
#282=POLY_LOOP('',(#190,#191,#215,#214));
#283=FACE_OUTER_BOUND('',#282,.T.);
#284=FACE('',(#283));
#285=POLY_LOOP('',(#191,#192,#216,#215));
#286=FACE_OUTER_BOUND('',#285,.T.);
#287=FACE('',(#286));
#288=POLY_LOOP('',(#192,#193,#217,#216));
#289=FACE_OUTER_BOUND('',#288,.T.);
#290=FACE('',(#289));
#291=POLY_LOOP('',(#193,#194,#218,#217));
#292=FACE_OUTER_BOUND('',#291,.T.);
#293=FACE('',(#292));
#294=POLY_LOOP('',(#194,#171,#195,#218));
#295=FACE_OUTER_BOUND('',#294,.T.);
#296=FACE('',(#295));
#297=CLOSED_SHELL('',(#221,#224,#227,#230,#233,#236,#239,#242,#245,#248,#251,#254,#257,#260,#263,#266,#269,#272,#275,#278,#281,#284,#287,#290,#293,#296));
#298=FACETED_BREP('OPTICAL_LENS',#297);
#299=CARTESIAN_POINT('',(48.0000,-87.0000,-4.0000));
#300=CARTESIAN_POINT('',(68.0000,-87.0000,-4.0000));
#301=CARTESIAN_POINT('',(68.0000,-84.0000,-4.0000));
#302=CARTESIAN_POINT('',(48.0000,-84.0000,-4.0000));
#303=CARTESIAN_POINT('',(48.0000,-87.0000,8.0000));
#304=CARTESIAN_POINT('',(68.0000,-87.0000,8.0000));
#305=CARTESIAN_POINT('',(68.0000,-84.0000,8.0000));
#306=CARTESIAN_POINT('',(48.0000,-84.0000,8.0000));
#307=POLY_LOOP('',(#299,#302,#301,#300));
#308=FACE_OUTER_BOUND('',#307,.T.);
#309=FACE('',(#308));
#310=POLY_LOOP('',(#303,#304,#305,#306));
#311=FACE_OUTER_BOUND('',#310,.T.);
#312=FACE('',(#311));
#313=POLY_LOOP('',(#299,#300,#304,#303));
#314=FACE_OUTER_BOUND('',#313,.T.);
#315=FACE('',(#314));
#316=POLY_LOOP('',(#300,#301,#305,#304));
#317=FACE_OUTER_BOUND('',#316,.T.);
#318=FACE('',(#317));
#319=POLY_LOOP('',(#301,#302,#306,#305));
#320=FACE_OUTER_BOUND('',#319,.T.);
#321=FACE('',(#320));
#322=POLY_LOOP('',(#302,#299,#303,#306));
#323=FACE_OUTER_BOUND('',#322,.T.);
#324=FACE('',(#323));
#325=CLOSED_SHELL('',(#309,#312,#315,#318,#321,#324));
#326=FACETED_BREP('FRONT_SENSOR',#325);
#327=CARTESIAN_POINT('',(-82.0000,84.0000,4.0000));
#328=CARTESIAN_POINT('',(82.0000,84.0000,4.0000));
#329=CARTESIAN_POINT('',(82.0000,88.0000,4.0000));
#330=CARTESIAN_POINT('',(-82.0000,88.0000,4.0000));
#331=CARTESIAN_POINT('',(-82.0000,84.0000,30.0000));
#332=CARTESIAN_POINT('',(82.0000,84.0000,30.0000));
#333=CARTESIAN_POINT('',(82.0000,88.0000,30.0000));
#334=CARTESIAN_POINT('',(-82.0000,88.0000,30.0000));
#335=POLY_LOOP('',(#327,#330,#329,#328));
#336=FACE_OUTER_BOUND('',#335,.T.);
#337=FACE('',(#336));
#338=POLY_LOOP('',(#331,#332,#333,#334));
#339=FACE_OUTER_BOUND('',#338,.T.);
#340=FACE('',(#339));
#341=POLY_LOOP('',(#327,#328,#332,#331));
#342=FACE_OUTER_BOUND('',#341,.T.);
#343=FACE('',(#342));
#344=POLY_LOOP('',(#328,#329,#333,#332));
#345=FACE_OUTER_BOUND('',#344,.T.);
#346=FACE('',(#345));
#347=POLY_LOOP('',(#329,#330,#334,#333));
#348=FACE_OUTER_BOUND('',#347,.T.);
#349=FACE('',(#348));
#350=POLY_LOOP('',(#330,#327,#331,#334));
#351=FACE_OUTER_BOUND('',#350,.T.);
#352=FACE('',(#351));
#353=CLOSED_SHELL('',(#337,#340,#343,#346,#349,#352));
#354=FACETED_BREP('REAR_IO_RECESS',#353);
#355=CARTESIAN_POINT('',(-68.0000,88.0000,12.0000));
#356=CARTESIAN_POINT('',(-48.0000,88.0000,12.0000));
#357=CARTESIAN_POINT('',(-48.0000,91.0000,12.0000));
#358=CARTESIAN_POINT('',(-68.0000,91.0000,12.0000));
#359=CARTESIAN_POINT('',(-68.0000,88.0000,22.0000));
#360=CARTESIAN_POINT('',(-48.0000,88.0000,22.0000));
#361=CARTESIAN_POINT('',(-48.0000,91.0000,22.0000));
#362=CARTESIAN_POINT('',(-68.0000,91.0000,22.0000));
#363=POLY_LOOP('',(#355,#358,#357,#356));
#364=FACE_OUTER_BOUND('',#363,.T.);
#365=FACE('',(#364));
#366=POLY_LOOP('',(#359,#360,#361,#362));
#367=FACE_OUTER_BOUND('',#366,.T.);
#368=FACE('',(#367));
#369=POLY_LOOP('',(#355,#356,#360,#359));
#370=FACE_OUTER_BOUND('',#369,.T.);
#371=FACE('',(#370));
#372=POLY_LOOP('',(#356,#357,#361,#360));
#373=FACE_OUTER_BOUND('',#372,.T.);
#374=FACE('',(#373));
#375=POLY_LOOP('',(#357,#358,#362,#361));
#376=FACE_OUTER_BOUND('',#375,.T.);
#377=FACE('',(#376));
#378=POLY_LOOP('',(#358,#355,#359,#362));
#379=FACE_OUTER_BOUND('',#378,.T.);
#380=FACE('',(#379));
#381=CLOSED_SHELL('',(#365,#368,#371,#374,#377,#380));
#382=FACETED_BREP('HDMI_PORT',#381);
#383=CARTESIAN_POINT('',(-37.0000,88.0000,12.0000));
#384=CARTESIAN_POINT('',(-22.0000,88.0000,12.0000));
#385=CARTESIAN_POINT('',(-22.0000,91.0000,12.0000));
#386=CARTESIAN_POINT('',(-37.0000,91.0000,12.0000));
#387=CARTESIAN_POINT('',(-37.0000,88.0000,21.0000));
#388=CARTESIAN_POINT('',(-22.0000,88.0000,21.0000));
#389=CARTESIAN_POINT('',(-22.0000,91.0000,21.0000));
#390=CARTESIAN_POINT('',(-37.0000,91.0000,21.0000));
#391=POLY_LOOP('',(#383,#386,#385,#384));
#392=FACE_OUTER_BOUND('',#391,.T.);
#393=FACE('',(#392));
#394=POLY_LOOP('',(#387,#388,#389,#390));
#395=FACE_OUTER_BOUND('',#394,.T.);
#396=FACE('',(#395));
#397=POLY_LOOP('',(#383,#384,#388,#387));
#398=FACE_OUTER_BOUND('',#397,.T.);
#399=FACE('',(#398));
#400=POLY_LOOP('',(#384,#385,#389,#388));
#401=FACE_OUTER_BOUND('',#400,.T.);
#402=FACE('',(#401));
#403=POLY_LOOP('',(#385,#386,#390,#389));
#404=FACE_OUTER_BOUND('',#403,.T.);
#405=FACE('',(#404));
#406=POLY_LOOP('',(#386,#383,#387,#390));
#407=FACE_OUTER_BOUND('',#406,.T.);
#408=FACE('',(#407));
#409=CLOSED_SHELL('',(#393,#396,#399,#402,#405,#408));
#410=FACETED_BREP('USB_A_1',#409);
#411=CARTESIAN_POINT('',(-14.0000,88.0000,12.0000));
#412=CARTESIAN_POINT('',(1.0000,88.0000,12.0000));
#413=CARTESIAN_POINT('',(1.0000,91.0000,12.0000));
#414=CARTESIAN_POINT('',(-14.0000,91.0000,12.0000));
#415=CARTESIAN_POINT('',(-14.0000,88.0000,21.0000));
#416=CARTESIAN_POINT('',(1.0000,88.0000,21.0000));
#417=CARTESIAN_POINT('',(1.0000,91.0000,21.0000));
#418=CARTESIAN_POINT('',(-14.0000,91.0000,21.0000));
#419=POLY_LOOP('',(#411,#414,#413,#412));
#420=FACE_OUTER_BOUND('',#419,.T.);
#421=FACE('',(#420));
#422=POLY_LOOP('',(#415,#416,#417,#418));
#423=FACE_OUTER_BOUND('',#422,.T.);
#424=FACE('',(#423));
#425=POLY_LOOP('',(#411,#412,#416,#415));
#426=FACE_OUTER_BOUND('',#425,.T.);
#427=FACE('',(#426));
#428=POLY_LOOP('',(#412,#413,#417,#416));
#429=FACE_OUTER_BOUND('',#428,.T.);
#430=FACE('',(#429));
#431=POLY_LOOP('',(#413,#414,#418,#417));
#432=FACE_OUTER_BOUND('',#431,.T.);
#433=FACE('',(#432));
#434=POLY_LOOP('',(#414,#411,#415,#418));
#435=FACE_OUTER_BOUND('',#434,.T.);
#436=FACE('',(#435));
#437=CLOSED_SHELL('',(#421,#424,#427,#430,#433,#436));
#438=FACETED_BREP('USB_A_2',#437);
#439=CARTESIAN_POINT('',(22.0000,88.0000,17.0000));
#440=CARTESIAN_POINT('',(21.8637,88.0000,18.0353));
#441=CARTESIAN_POINT('',(21.4641,88.0000,19.0000));
#442=CARTESIAN_POINT('',(20.8284,88.0000,19.8284));
#443=CARTESIAN_POINT('',(20.0000,88.0000,20.4641));
#444=CARTESIAN_POINT('',(19.0353,88.0000,20.8637));
#445=CARTESIAN_POINT('',(18.0000,88.0000,21.0000));
#446=CARTESIAN_POINT('',(16.9647,88.0000,20.8637));
#447=CARTESIAN_POINT('',(16.0000,88.0000,20.4641));
#448=CARTESIAN_POINT('',(15.1716,88.0000,19.8284));
#449=CARTESIAN_POINT('',(14.5359,88.0000,19.0000));
#450=CARTESIAN_POINT('',(14.1363,88.0000,18.0353));
#451=CARTESIAN_POINT('',(14.0000,88.0000,17.0000));
#452=CARTESIAN_POINT('',(14.1363,88.0000,15.9647));
#453=CARTESIAN_POINT('',(14.5359,88.0000,15.0000));
#454=CARTESIAN_POINT('',(15.1716,88.0000,14.1716));
#455=CARTESIAN_POINT('',(16.0000,88.0000,13.5359));
#456=CARTESIAN_POINT('',(16.9647,88.0000,13.1363));
#457=CARTESIAN_POINT('',(18.0000,88.0000,13.0000));
#458=CARTESIAN_POINT('',(19.0353,88.0000,13.1363));
#459=CARTESIAN_POINT('',(20.0000,88.0000,13.5359));
#460=CARTESIAN_POINT('',(20.8284,88.0000,14.1716));
#461=CARTESIAN_POINT('',(21.4641,88.0000,15.0000));
#462=CARTESIAN_POINT('',(21.8637,88.0000,15.9647));
#463=CARTESIAN_POINT('',(22.0000,91.0000,17.0000));
#464=CARTESIAN_POINT('',(21.8637,91.0000,18.0353));
#465=CARTESIAN_POINT('',(21.4641,91.0000,19.0000));
#466=CARTESIAN_POINT('',(20.8284,91.0000,19.8284));
#467=CARTESIAN_POINT('',(20.0000,91.0000,20.4641));
#468=CARTESIAN_POINT('',(19.0353,91.0000,20.8637));
#469=CARTESIAN_POINT('',(18.0000,91.0000,21.0000));
#470=CARTESIAN_POINT('',(16.9647,91.0000,20.8637));
#471=CARTESIAN_POINT('',(16.0000,91.0000,20.4641));
#472=CARTESIAN_POINT('',(15.1716,91.0000,19.8284));
#473=CARTESIAN_POINT('',(14.5359,91.0000,19.0000));
#474=CARTESIAN_POINT('',(14.1363,91.0000,18.0353));
#475=CARTESIAN_POINT('',(14.0000,91.0000,17.0000));
#476=CARTESIAN_POINT('',(14.1363,91.0000,15.9647));
#477=CARTESIAN_POINT('',(14.5359,91.0000,15.0000));
#478=CARTESIAN_POINT('',(15.1716,91.0000,14.1716));
#479=CARTESIAN_POINT('',(16.0000,91.0000,13.5359));
#480=CARTESIAN_POINT('',(16.9647,91.0000,13.1363));
#481=CARTESIAN_POINT('',(18.0000,91.0000,13.0000));
#482=CARTESIAN_POINT('',(19.0353,91.0000,13.1363));
#483=CARTESIAN_POINT('',(20.0000,91.0000,13.5359));
#484=CARTESIAN_POINT('',(20.8284,91.0000,14.1716));
#485=CARTESIAN_POINT('',(21.4641,91.0000,15.0000));
#486=CARTESIAN_POINT('',(21.8637,91.0000,15.9647));
#487=POLY_LOOP('',(#462,#461,#460,#459,#458,#457,#456,#455,#454,#453,#452,#451,#450,#449,#448,#447,#446,#445,#444,#443,#442,#441,#440,#439));
#488=FACE_OUTER_BOUND('',#487,.T.);
#489=FACE('',(#488));
#490=POLY_LOOP('',(#463,#464,#465,#466,#467,#468,#469,#470,#471,#472,#473,#474,#475,#476,#477,#478,#479,#480,#481,#482,#483,#484,#485,#486));
#491=FACE_OUTER_BOUND('',#490,.T.);
#492=FACE('',(#491));
#493=POLY_LOOP('',(#439,#440,#464,#463));
#494=FACE_OUTER_BOUND('',#493,.T.);
#495=FACE('',(#494));
#496=POLY_LOOP('',(#440,#441,#465,#464));
#497=FACE_OUTER_BOUND('',#496,.T.);
#498=FACE('',(#497));
#499=POLY_LOOP('',(#441,#442,#466,#465));
#500=FACE_OUTER_BOUND('',#499,.T.);
#501=FACE('',(#500));
#502=POLY_LOOP('',(#442,#443,#467,#466));
#503=FACE_OUTER_BOUND('',#502,.T.);
#504=FACE('',(#503));
#505=POLY_LOOP('',(#443,#444,#468,#467));
#506=FACE_OUTER_BOUND('',#505,.T.);
#507=FACE('',(#506));
#508=POLY_LOOP('',(#444,#445,#469,#468));
#509=FACE_OUTER_BOUND('',#508,.T.);
#510=FACE('',(#509));
#511=POLY_LOOP('',(#445,#446,#470,#469));
#512=FACE_OUTER_BOUND('',#511,.T.);
#513=FACE('',(#512));
#514=POLY_LOOP('',(#446,#447,#471,#470));
#515=FACE_OUTER_BOUND('',#514,.T.);
#516=FACE('',(#515));
#517=POLY_LOOP('',(#447,#448,#472,#471));
#518=FACE_OUTER_BOUND('',#517,.T.);
#519=FACE('',(#518));
#520=POLY_LOOP('',(#448,#449,#473,#472));
#521=FACE_OUTER_BOUND('',#520,.T.);
#522=FACE('',(#521));
#523=POLY_LOOP('',(#449,#450,#474,#473));
#524=FACE_OUTER_BOUND('',#523,.T.);
#525=FACE('',(#524));
#526=POLY_LOOP('',(#450,#451,#475,#474));
#527=FACE_OUTER_BOUND('',#526,.T.);
#528=FACE('',(#527));
#529=POLY_LOOP('',(#451,#452,#476,#475));
#530=FACE_OUTER_BOUND('',#529,.T.);
#531=FACE('',(#530));
#532=POLY_LOOP('',(#452,#453,#477,#476));
#533=FACE_OUTER_BOUND('',#532,.T.);
#534=FACE('',(#533));
#535=POLY_LOOP('',(#453,#454,#478,#477));
#536=FACE_OUTER_BOUND('',#535,.T.);
#537=FACE('',(#536));
#538=POLY_LOOP('',(#454,#455,#479,#478));
#539=FACE_OUTER_BOUND('',#538,.T.);
#540=FACE('',(#539));
#541=POLY_LOOP('',(#455,#456,#480,#479));
#542=FACE_OUTER_BOUND('',#541,.T.);
#543=FACE('',(#542));
#544=POLY_LOOP('',(#456,#457,#481,#480));
#545=FACE_OUTER_BOUND('',#544,.T.);
#546=FACE('',(#545));
#547=POLY_LOOP('',(#457,#458,#482,#481));
#548=FACE_OUTER_BOUND('',#547,.T.);
#549=FACE('',(#548));
#550=POLY_LOOP('',(#458,#459,#483,#482));
#551=FACE_OUTER_BOUND('',#550,.T.);
#552=FACE('',(#551));
#553=POLY_LOOP('',(#459,#460,#484,#483));
#554=FACE_OUTER_BOUND('',#553,.T.);
#555=FACE('',(#554));
#556=POLY_LOOP('',(#460,#461,#485,#484));
#557=FACE_OUTER_BOUND('',#556,.T.);
#558=FACE('',(#557));
#559=POLY_LOOP('',(#461,#462,#486,#485));
#560=FACE_OUTER_BOUND('',#559,.T.);
#561=FACE('',(#560));
#562=POLY_LOOP('',(#462,#439,#463,#486));
#563=FACE_OUTER_BOUND('',#562,.T.);
#564=FACE('',(#563));
#565=CLOSED_SHELL('',(#489,#492,#495,#498,#501,#504,#507,#510,#513,#516,#519,#522,#525,#528,#531,#534,#537,#540,#543,#546,#549,#552,#555,#558,#561,#564));
#566=FACETED_BREP('AUDIO_JACK',#565);
#567=CARTESIAN_POINT('',(46.0000,88.0000,17.0000));
#568=CARTESIAN_POINT('',(45.8637,88.0000,18.0353));
#569=CARTESIAN_POINT('',(45.4641,88.0000,19.0000));
#570=CARTESIAN_POINT('',(44.8284,88.0000,19.8284));
#571=CARTESIAN_POINT('',(44.0000,88.0000,20.4641));
#572=CARTESIAN_POINT('',(43.0353,88.0000,20.8637));
#573=CARTESIAN_POINT('',(42.0000,88.0000,21.0000));
#574=CARTESIAN_POINT('',(40.9647,88.0000,20.8637));
#575=CARTESIAN_POINT('',(40.0000,88.0000,20.4641));
#576=CARTESIAN_POINT('',(39.1716,88.0000,19.8284));
#577=CARTESIAN_POINT('',(38.5359,88.0000,19.0000));
#578=CARTESIAN_POINT('',(38.1363,88.0000,18.0353));
#579=CARTESIAN_POINT('',(38.0000,88.0000,17.0000));
#580=CARTESIAN_POINT('',(38.1363,88.0000,15.9647));
#581=CARTESIAN_POINT('',(38.5359,88.0000,15.0000));
#582=CARTESIAN_POINT('',(39.1716,88.0000,14.1716));
#583=CARTESIAN_POINT('',(40.0000,88.0000,13.5359));
#584=CARTESIAN_POINT('',(40.9647,88.0000,13.1363));
#585=CARTESIAN_POINT('',(42.0000,88.0000,13.0000));
#586=CARTESIAN_POINT('',(43.0353,88.0000,13.1363));
#587=CARTESIAN_POINT('',(44.0000,88.0000,13.5359));
#588=CARTESIAN_POINT('',(44.8284,88.0000,14.1716));
#589=CARTESIAN_POINT('',(45.4641,88.0000,15.0000));
#590=CARTESIAN_POINT('',(45.8637,88.0000,15.9647));
#591=CARTESIAN_POINT('',(46.0000,91.0000,17.0000));
#592=CARTESIAN_POINT('',(45.8637,91.0000,18.0353));
#593=CARTESIAN_POINT('',(45.4641,91.0000,19.0000));
#594=CARTESIAN_POINT('',(44.8284,91.0000,19.8284));
#595=CARTESIAN_POINT('',(44.0000,91.0000,20.4641));
#596=CARTESIAN_POINT('',(43.0353,91.0000,20.8637));
#597=CARTESIAN_POINT('',(42.0000,91.0000,21.0000));
#598=CARTESIAN_POINT('',(40.9647,91.0000,20.8637));
#599=CARTESIAN_POINT('',(40.0000,91.0000,20.4641));
#600=CARTESIAN_POINT('',(39.1716,91.0000,19.8284));
#601=CARTESIAN_POINT('',(38.5359,91.0000,19.0000));
#602=CARTESIAN_POINT('',(38.1363,91.0000,18.0353));
#603=CARTESIAN_POINT('',(38.0000,91.0000,17.0000));
#604=CARTESIAN_POINT('',(38.1363,91.0000,15.9647));
#605=CARTESIAN_POINT('',(38.5359,91.0000,15.0000));
#606=CARTESIAN_POINT('',(39.1716,91.0000,14.1716));
#607=CARTESIAN_POINT('',(40.0000,91.0000,13.5359));
#608=CARTESIAN_POINT('',(40.9647,91.0000,13.1363));
#609=CARTESIAN_POINT('',(42.0000,91.0000,13.0000));
#610=CARTESIAN_POINT('',(43.0353,91.0000,13.1363));
#611=CARTESIAN_POINT('',(44.0000,91.0000,13.5359));
#612=CARTESIAN_POINT('',(44.8284,91.0000,14.1716));
#613=CARTESIAN_POINT('',(45.4641,91.0000,15.0000));
#614=CARTESIAN_POINT('',(45.8637,91.0000,15.9647));
#615=POLY_LOOP('',(#590,#589,#588,#587,#586,#585,#584,#583,#582,#581,#580,#579,#578,#577,#576,#575,#574,#573,#572,#571,#570,#569,#568,#567));
#616=FACE_OUTER_BOUND('',#615,.T.);
#617=FACE('',(#616));
#618=POLY_LOOP('',(#591,#592,#593,#594,#595,#596,#597,#598,#599,#600,#601,#602,#603,#604,#605,#606,#607,#608,#609,#610,#611,#612,#613,#614));
#619=FACE_OUTER_BOUND('',#618,.T.);
#620=FACE('',(#619));
#621=POLY_LOOP('',(#567,#568,#592,#591));
#622=FACE_OUTER_BOUND('',#621,.T.);
#623=FACE('',(#622));
#624=POLY_LOOP('',(#568,#569,#593,#592));
#625=FACE_OUTER_BOUND('',#624,.T.);
#626=FACE('',(#625));
#627=POLY_LOOP('',(#569,#570,#594,#593));
#628=FACE_OUTER_BOUND('',#627,.T.);
#629=FACE('',(#628));
#630=POLY_LOOP('',(#570,#571,#595,#594));
#631=FACE_OUTER_BOUND('',#630,.T.);
#632=FACE('',(#631));
#633=POLY_LOOP('',(#571,#572,#596,#595));
#634=FACE_OUTER_BOUND('',#633,.T.);
#635=FACE('',(#634));
#636=POLY_LOOP('',(#572,#573,#597,#596));
#637=FACE_OUTER_BOUND('',#636,.T.);
#638=FACE('',(#637));
#639=POLY_LOOP('',(#573,#574,#598,#597));
#640=FACE_OUTER_BOUND('',#639,.T.);
#641=FACE('',(#640));
#642=POLY_LOOP('',(#574,#575,#599,#598));
#643=FACE_OUTER_BOUND('',#642,.T.);
#644=FACE('',(#643));
#645=POLY_LOOP('',(#575,#576,#600,#599));
#646=FACE_OUTER_BOUND('',#645,.T.);
#647=FACE('',(#646));
#648=POLY_LOOP('',(#576,#577,#601,#600));
#649=FACE_OUTER_BOUND('',#648,.T.);
#650=FACE('',(#649));
#651=POLY_LOOP('',(#577,#578,#602,#601));
#652=FACE_OUTER_BOUND('',#651,.T.);
#653=FACE('',(#652));
#654=POLY_LOOP('',(#578,#579,#603,#602));
#655=FACE_OUTER_BOUND('',#654,.T.);
#656=FACE('',(#655));
#657=POLY_LOOP('',(#579,#580,#604,#603));
#658=FACE_OUTER_BOUND('',#657,.T.);
#659=FACE('',(#658));
#660=POLY_LOOP('',(#580,#581,#605,#604));
#661=FACE_OUTER_BOUND('',#660,.T.);
#662=FACE('',(#661));
#663=POLY_LOOP('',(#581,#582,#606,#605));
#664=FACE_OUTER_BOUND('',#663,.T.);
#665=FACE('',(#664));
#666=POLY_LOOP('',(#582,#583,#607,#606));
#667=FACE_OUTER_BOUND('',#666,.T.);
#668=FACE('',(#667));
#669=POLY_LOOP('',(#583,#584,#608,#607));
#670=FACE_OUTER_BOUND('',#669,.T.);
#671=FACE('',(#670));
#672=POLY_LOOP('',(#584,#585,#609,#608));
#673=FACE_OUTER_BOUND('',#672,.T.);
#674=FACE('',(#673));
#675=POLY_LOOP('',(#585,#586,#610,#609));
#676=FACE_OUTER_BOUND('',#675,.T.);
#677=FACE('',(#676));
#678=POLY_LOOP('',(#586,#587,#611,#610));
#679=FACE_OUTER_BOUND('',#678,.T.);
#680=FACE('',(#679));
#681=POLY_LOOP('',(#587,#588,#612,#611));
#682=FACE_OUTER_BOUND('',#681,.T.);
#683=FACE('',(#682));
#684=POLY_LOOP('',(#588,#589,#613,#612));
#685=FACE_OUTER_BOUND('',#684,.T.);
#686=FACE('',(#685));
#687=POLY_LOOP('',(#589,#590,#614,#613));
#688=FACE_OUTER_BOUND('',#687,.T.);
#689=FACE('',(#688));
#690=POLY_LOOP('',(#590,#567,#591,#614));
#691=FACE_OUTER_BOUND('',#690,.T.);
#692=FACE('',(#691));
#693=CLOSED_SHELL('',(#617,#620,#623,#626,#629,#632,#635,#638,#641,#644,#647,#650,#653,#656,#659,#662,#665,#668,#671,#674,#677,#680,#683,#686,#689,#692));
#694=FACETED_BREP('AV_JACK',#693);
#695=CARTESIAN_POINT('',(73.0000,88.0000,17.0000));
#696=CARTESIAN_POINT('',(72.8296,88.0000,18.2941));
#697=CARTESIAN_POINT('',(72.3301,88.0000,19.5000));
#698=CARTESIAN_POINT('',(71.5355,88.0000,20.5355));
#699=CARTESIAN_POINT('',(70.5000,88.0000,21.3301));
#700=CARTESIAN_POINT('',(69.2941,88.0000,21.8296));
#701=CARTESIAN_POINT('',(68.0000,88.0000,22.0000));
#702=CARTESIAN_POINT('',(66.7059,88.0000,21.8296));
#703=CARTESIAN_POINT('',(65.5000,88.0000,21.3301));
#704=CARTESIAN_POINT('',(64.4645,88.0000,20.5355));
#705=CARTESIAN_POINT('',(63.6699,88.0000,19.5000));
#706=CARTESIAN_POINT('',(63.1704,88.0000,18.2941));
#707=CARTESIAN_POINT('',(63.0000,88.0000,17.0000));
#708=CARTESIAN_POINT('',(63.1704,88.0000,15.7059));
#709=CARTESIAN_POINT('',(63.6699,88.0000,14.5000));
#710=CARTESIAN_POINT('',(64.4645,88.0000,13.4645));
#711=CARTESIAN_POINT('',(65.5000,88.0000,12.6699));
#712=CARTESIAN_POINT('',(66.7059,88.0000,12.1704));
#713=CARTESIAN_POINT('',(68.0000,88.0000,12.0000));
#714=CARTESIAN_POINT('',(69.2941,88.0000,12.1704));
#715=CARTESIAN_POINT('',(70.5000,88.0000,12.6699));
#716=CARTESIAN_POINT('',(71.5355,88.0000,13.4645));
#717=CARTESIAN_POINT('',(72.3301,88.0000,14.5000));
#718=CARTESIAN_POINT('',(72.8296,88.0000,15.7059));
#719=CARTESIAN_POINT('',(73.0000,91.0000,17.0000));
#720=CARTESIAN_POINT('',(72.8296,91.0000,18.2941));
#721=CARTESIAN_POINT('',(72.3301,91.0000,19.5000));
#722=CARTESIAN_POINT('',(71.5355,91.0000,20.5355));
#723=CARTESIAN_POINT('',(70.5000,91.0000,21.3301));
#724=CARTESIAN_POINT('',(69.2941,91.0000,21.8296));
#725=CARTESIAN_POINT('',(68.0000,91.0000,22.0000));
#726=CARTESIAN_POINT('',(66.7059,91.0000,21.8296));
#727=CARTESIAN_POINT('',(65.5000,91.0000,21.3301));
#728=CARTESIAN_POINT('',(64.4645,91.0000,20.5355));
#729=CARTESIAN_POINT('',(63.6699,91.0000,19.5000));
#730=CARTESIAN_POINT('',(63.1704,91.0000,18.2941));
#731=CARTESIAN_POINT('',(63.0000,91.0000,17.0000));
#732=CARTESIAN_POINT('',(63.1704,91.0000,15.7059));
#733=CARTESIAN_POINT('',(63.6699,91.0000,14.5000));
#734=CARTESIAN_POINT('',(64.4645,91.0000,13.4645));
#735=CARTESIAN_POINT('',(65.5000,91.0000,12.6699));
#736=CARTESIAN_POINT('',(66.7059,91.0000,12.1704));
#737=CARTESIAN_POINT('',(68.0000,91.0000,12.0000));
#738=CARTESIAN_POINT('',(69.2941,91.0000,12.1704));
#739=CARTESIAN_POINT('',(70.5000,91.0000,12.6699));
#740=CARTESIAN_POINT('',(71.5355,91.0000,13.4645));
#741=CARTESIAN_POINT('',(72.3301,91.0000,14.5000));
#742=CARTESIAN_POINT('',(72.8296,91.0000,15.7059));
#743=POLY_LOOP('',(#718,#717,#716,#715,#714,#713,#712,#711,#710,#709,#708,#707,#706,#705,#704,#703,#702,#701,#700,#699,#698,#697,#696,#695));
#744=FACE_OUTER_BOUND('',#743,.T.);
#745=FACE('',(#744));
#746=POLY_LOOP('',(#719,#720,#721,#722,#723,#724,#725,#726,#727,#728,#729,#730,#731,#732,#733,#734,#735,#736,#737,#738,#739,#740,#741,#742));
#747=FACE_OUTER_BOUND('',#746,.T.);
#748=FACE('',(#747));
#749=POLY_LOOP('',(#695,#696,#720,#719));
#750=FACE_OUTER_BOUND('',#749,.T.);
#751=FACE('',(#750));
#752=POLY_LOOP('',(#696,#697,#721,#720));
#753=FACE_OUTER_BOUND('',#752,.T.);
#754=FACE('',(#753));
#755=POLY_LOOP('',(#697,#698,#722,#721));
#756=FACE_OUTER_BOUND('',#755,.T.);
#757=FACE('',(#756));
#758=POLY_LOOP('',(#698,#699,#723,#722));
#759=FACE_OUTER_BOUND('',#758,.T.);
#760=FACE('',(#759));
#761=POLY_LOOP('',(#699,#700,#724,#723));
#762=FACE_OUTER_BOUND('',#761,.T.);
#763=FACE('',(#762));
#764=POLY_LOOP('',(#700,#701,#725,#724));
#765=FACE_OUTER_BOUND('',#764,.T.);
#766=FACE('',(#765));
#767=POLY_LOOP('',(#701,#702,#726,#725));
#768=FACE_OUTER_BOUND('',#767,.T.);
#769=FACE('',(#768));
#770=POLY_LOOP('',(#702,#703,#727,#726));
#771=FACE_OUTER_BOUND('',#770,.T.);
#772=FACE('',(#771));
#773=POLY_LOOP('',(#703,#704,#728,#727));
#774=FACE_OUTER_BOUND('',#773,.T.);
#775=FACE('',(#774));
#776=POLY_LOOP('',(#704,#705,#729,#728));
#777=FACE_OUTER_BOUND('',#776,.T.);
#778=FACE('',(#777));
#779=POLY_LOOP('',(#705,#706,#730,#729));
#780=FACE_OUTER_BOUND('',#779,.T.);
#781=FACE('',(#780));
#782=POLY_LOOP('',(#706,#707,#731,#730));
#783=FACE_OUTER_BOUND('',#782,.T.);
#784=FACE('',(#783));
#785=POLY_LOOP('',(#707,#708,#732,#731));
#786=FACE_OUTER_BOUND('',#785,.T.);
#787=FACE('',(#786));
#788=POLY_LOOP('',(#708,#709,#733,#732));
#789=FACE_OUTER_BOUND('',#788,.T.);
#790=FACE('',(#789));
#791=POLY_LOOP('',(#709,#710,#734,#733));
#792=FACE_OUTER_BOUND('',#791,.T.);
#793=FACE('',(#792));
#794=POLY_LOOP('',(#710,#711,#735,#734));
#795=FACE_OUTER_BOUND('',#794,.T.);
#796=FACE('',(#795));
#797=POLY_LOOP('',(#711,#712,#736,#735));
#798=FACE_OUTER_BOUND('',#797,.T.);
#799=FACE('',(#798));
#800=POLY_LOOP('',(#712,#713,#737,#736));
#801=FACE_OUTER_BOUND('',#800,.T.);
#802=FACE('',(#801));
#803=POLY_LOOP('',(#713,#714,#738,#737));
#804=FACE_OUTER_BOUND('',#803,.T.);
#805=FACE('',(#804));
#806=POLY_LOOP('',(#714,#715,#739,#738));
#807=FACE_OUTER_BOUND('',#806,.T.);
#808=FACE('',(#807));
#809=POLY_LOOP('',(#715,#716,#740,#739));
#810=FACE_OUTER_BOUND('',#809,.T.);
#811=FACE('',(#810));
#812=POLY_LOOP('',(#716,#717,#741,#740));
#813=FACE_OUTER_BOUND('',#812,.T.);
#814=FACE('',(#813));
#815=POLY_LOOP('',(#717,#718,#742,#741));
#816=FACE_OUTER_BOUND('',#815,.T.);
#817=FACE('',(#816));
#818=POLY_LOOP('',(#718,#695,#719,#742));
#819=FACE_OUTER_BOUND('',#818,.T.);
#820=FACE('',(#819));
#821=CLOSED_SHELL('',(#745,#748,#751,#754,#757,#760,#763,#766,#769,#772,#775,#778,#781,#784,#787,#790,#793,#796,#799,#802,#805,#808,#811,#814,#817,#820));
#822=FACETED_BREP('DC_IN',#821);
#823=CARTESIAN_POINT('',(-77.0000,-65.0000,-44.0000));
#824=CARTESIAN_POINT('',(-77.2726,-62.9294,-44.0000));
#825=CARTESIAN_POINT('',(-78.0718,-61.0000,-44.0000));
#826=CARTESIAN_POINT('',(-79.3431,-59.3431,-44.0000));
#827=CARTESIAN_POINT('',(-81.0000,-58.0718,-44.0000));
#828=CARTESIAN_POINT('',(-82.9294,-57.2726,-44.0000));
#829=CARTESIAN_POINT('',(-85.0000,-57.0000,-44.0000));
#830=CARTESIAN_POINT('',(-87.0706,-57.2726,-44.0000));
#831=CARTESIAN_POINT('',(-89.0000,-58.0718,-44.0000));
#832=CARTESIAN_POINT('',(-90.6569,-59.3431,-44.0000));
#833=CARTESIAN_POINT('',(-91.9282,-61.0000,-44.0000));
#834=CARTESIAN_POINT('',(-92.7274,-62.9294,-44.0000));
#835=CARTESIAN_POINT('',(-93.0000,-65.0000,-44.0000));
#836=CARTESIAN_POINT('',(-92.7274,-67.0706,-44.0000));
#837=CARTESIAN_POINT('',(-91.9282,-69.0000,-44.0000));
#838=CARTESIAN_POINT('',(-90.6569,-70.6569,-44.0000));
#839=CARTESIAN_POINT('',(-89.0000,-71.9282,-44.0000));
#840=CARTESIAN_POINT('',(-87.0706,-72.7274,-44.0000));
#841=CARTESIAN_POINT('',(-85.0000,-73.0000,-44.0000));
#842=CARTESIAN_POINT('',(-82.9294,-72.7274,-44.0000));
#843=CARTESIAN_POINT('',(-81.0000,-71.9282,-44.0000));
#844=CARTESIAN_POINT('',(-79.3431,-70.6569,-44.0000));
#845=CARTESIAN_POINT('',(-78.0718,-69.0000,-44.0000));
#846=CARTESIAN_POINT('',(-77.2726,-67.0706,-44.0000));
#847=CARTESIAN_POINT('',(-77.0000,-65.0000,-38.0000));
#848=CARTESIAN_POINT('',(-77.2726,-62.9294,-38.0000));
#849=CARTESIAN_POINT('',(-78.0718,-61.0000,-38.0000));
#850=CARTESIAN_POINT('',(-79.3431,-59.3431,-38.0000));
#851=CARTESIAN_POINT('',(-81.0000,-58.0718,-38.0000));
#852=CARTESIAN_POINT('',(-82.9294,-57.2726,-38.0000));
#853=CARTESIAN_POINT('',(-85.0000,-57.0000,-38.0000));
#854=CARTESIAN_POINT('',(-87.0706,-57.2726,-38.0000));
#855=CARTESIAN_POINT('',(-89.0000,-58.0718,-38.0000));
#856=CARTESIAN_POINT('',(-90.6569,-59.3431,-38.0000));
#857=CARTESIAN_POINT('',(-91.9282,-61.0000,-38.0000));
#858=CARTESIAN_POINT('',(-92.7274,-62.9294,-38.0000));
#859=CARTESIAN_POINT('',(-93.0000,-65.0000,-38.0000));
#860=CARTESIAN_POINT('',(-92.7274,-67.0706,-38.0000));
#861=CARTESIAN_POINT('',(-91.9282,-69.0000,-38.0000));
#862=CARTESIAN_POINT('',(-90.6569,-70.6569,-38.0000));
#863=CARTESIAN_POINT('',(-89.0000,-71.9282,-38.0000));
#864=CARTESIAN_POINT('',(-87.0706,-72.7274,-38.0000));
#865=CARTESIAN_POINT('',(-85.0000,-73.0000,-38.0000));
#866=CARTESIAN_POINT('',(-82.9294,-72.7274,-38.0000));
#867=CARTESIAN_POINT('',(-81.0000,-71.9282,-38.0000));
#868=CARTESIAN_POINT('',(-79.3431,-70.6569,-38.0000));
#869=CARTESIAN_POINT('',(-78.0718,-69.0000,-38.0000));
#870=CARTESIAN_POINT('',(-77.2726,-67.0706,-38.0000));
#871=POLY_LOOP('',(#846,#845,#844,#843,#842,#841,#840,#839,#838,#837,#836,#835,#834,#833,#832,#831,#830,#829,#828,#827,#826,#825,#824,#823));
#872=FACE_OUTER_BOUND('',#871,.T.);
#873=FACE('',(#872));
#874=POLY_LOOP('',(#847,#848,#849,#850,#851,#852,#853,#854,#855,#856,#857,#858,#859,#860,#861,#862,#863,#864,#865,#866,#867,#868,#869,#870));
#875=FACE_OUTER_BOUND('',#874,.T.);
#876=FACE('',(#875));
#877=POLY_LOOP('',(#823,#824,#848,#847));
#878=FACE_OUTER_BOUND('',#877,.T.);
#879=FACE('',(#878));
#880=POLY_LOOP('',(#824,#825,#849,#848));
#881=FACE_OUTER_BOUND('',#880,.T.);
#882=FACE('',(#881));
#883=POLY_LOOP('',(#825,#826,#850,#849));
#884=FACE_OUTER_BOUND('',#883,.T.);
#885=FACE('',(#884));
#886=POLY_LOOP('',(#826,#827,#851,#850));
#887=FACE_OUTER_BOUND('',#886,.T.);
#888=FACE('',(#887));
#889=POLY_LOOP('',(#827,#828,#852,#851));
#890=FACE_OUTER_BOUND('',#889,.T.);
#891=FACE('',(#890));
#892=POLY_LOOP('',(#828,#829,#853,#852));
#893=FACE_OUTER_BOUND('',#892,.T.);
#894=FACE('',(#893));
#895=POLY_LOOP('',(#829,#830,#854,#853));
#896=FACE_OUTER_BOUND('',#895,.T.);
#897=FACE('',(#896));
#898=POLY_LOOP('',(#830,#831,#855,#854));
#899=FACE_OUTER_BOUND('',#898,.T.);
#900=FACE('',(#899));
#901=POLY_LOOP('',(#831,#832,#856,#855));
#902=FACE_OUTER_BOUND('',#901,.T.);
#903=FACE('',(#902));
#904=POLY_LOOP('',(#832,#833,#857,#856));
#905=FACE_OUTER_BOUND('',#904,.T.);
#906=FACE('',(#905));
#907=POLY_LOOP('',(#833,#834,#858,#857));
#908=FACE_OUTER_BOUND('',#907,.T.);
#909=FACE('',(#908));
#910=POLY_LOOP('',(#834,#835,#859,#858));
#911=FACE_OUTER_BOUND('',#910,.T.);
#912=FACE('',(#911));
#913=POLY_LOOP('',(#835,#836,#860,#859));
#914=FACE_OUTER_BOUND('',#913,.T.);
#915=FACE('',(#914));
#916=POLY_LOOP('',(#836,#837,#861,#860));
#917=FACE_OUTER_BOUND('',#916,.T.);
#918=FACE('',(#917));
#919=POLY_LOOP('',(#837,#838,#862,#861));
#920=FACE_OUTER_BOUND('',#919,.T.);
#921=FACE('',(#920));
#922=POLY_LOOP('',(#838,#839,#863,#862));
#923=FACE_OUTER_BOUND('',#922,.T.);
#924=FACE('',(#923));
#925=POLY_LOOP('',(#839,#840,#864,#863));
#926=FACE_OUTER_BOUND('',#925,.T.);
#927=FACE('',(#926));
#928=POLY_LOOP('',(#840,#841,#865,#864));
#929=FACE_OUTER_BOUND('',#928,.T.);
#930=FACE('',(#929));
#931=POLY_LOOP('',(#841,#842,#866,#865));
#932=FACE_OUTER_BOUND('',#931,.T.);
#933=FACE('',(#932));
#934=POLY_LOOP('',(#842,#843,#867,#866));
#935=FACE_OUTER_BOUND('',#934,.T.);
#936=FACE('',(#935));
#937=POLY_LOOP('',(#843,#844,#868,#867));
#938=FACE_OUTER_BOUND('',#937,.T.);
#939=FACE('',(#938));
#940=POLY_LOOP('',(#844,#845,#869,#868));
#941=FACE_OUTER_BOUND('',#940,.T.);
#942=FACE('',(#941));
#943=POLY_LOOP('',(#845,#846,#870,#869));
#944=FACE_OUTER_BOUND('',#943,.T.);
#945=FACE('',(#944));
#946=POLY_LOOP('',(#846,#823,#847,#870));
#947=FACE_OUTER_BOUND('',#946,.T.);
#948=FACE('',(#947));
#949=CLOSED_SHELL('',(#873,#876,#879,#882,#885,#888,#891,#894,#897,#900,#903,#906,#909,#912,#915,#918,#921,#924,#927,#930,#933,#936,#939,#942,#945,#948));
#950=FACETED_BREP('RUBBER_FOOT',#949);
#951=CARTESIAN_POINT('',(-77.0000,65.0000,-44.0000));
#952=CARTESIAN_POINT('',(-77.2726,67.0706,-44.0000));
#953=CARTESIAN_POINT('',(-78.0718,69.0000,-44.0000));
#954=CARTESIAN_POINT('',(-79.3431,70.6569,-44.0000));
#955=CARTESIAN_POINT('',(-81.0000,71.9282,-44.0000));
#956=CARTESIAN_POINT('',(-82.9294,72.7274,-44.0000));
#957=CARTESIAN_POINT('',(-85.0000,73.0000,-44.0000));
#958=CARTESIAN_POINT('',(-87.0706,72.7274,-44.0000));
#959=CARTESIAN_POINT('',(-89.0000,71.9282,-44.0000));
#960=CARTESIAN_POINT('',(-90.6569,70.6569,-44.0000));
#961=CARTESIAN_POINT('',(-91.9282,69.0000,-44.0000));
#962=CARTESIAN_POINT('',(-92.7274,67.0706,-44.0000));
#963=CARTESIAN_POINT('',(-93.0000,65.0000,-44.0000));
#964=CARTESIAN_POINT('',(-92.7274,62.9294,-44.0000));
#965=CARTESIAN_POINT('',(-91.9282,61.0000,-44.0000));
#966=CARTESIAN_POINT('',(-90.6569,59.3431,-44.0000));
#967=CARTESIAN_POINT('',(-89.0000,58.0718,-44.0000));
#968=CARTESIAN_POINT('',(-87.0706,57.2726,-44.0000));
#969=CARTESIAN_POINT('',(-85.0000,57.0000,-44.0000));
#970=CARTESIAN_POINT('',(-82.9294,57.2726,-44.0000));
#971=CARTESIAN_POINT('',(-81.0000,58.0718,-44.0000));
#972=CARTESIAN_POINT('',(-79.3431,59.3431,-44.0000));
#973=CARTESIAN_POINT('',(-78.0718,61.0000,-44.0000));
#974=CARTESIAN_POINT('',(-77.2726,62.9294,-44.0000));
#975=CARTESIAN_POINT('',(-77.0000,65.0000,-38.0000));
#976=CARTESIAN_POINT('',(-77.2726,67.0706,-38.0000));
#977=CARTESIAN_POINT('',(-78.0718,69.0000,-38.0000));
#978=CARTESIAN_POINT('',(-79.3431,70.6569,-38.0000));
#979=CARTESIAN_POINT('',(-81.0000,71.9282,-38.0000));
#980=CARTESIAN_POINT('',(-82.9294,72.7274,-38.0000));
#981=CARTESIAN_POINT('',(-85.0000,73.0000,-38.0000));
#982=CARTESIAN_POINT('',(-87.0706,72.7274,-38.0000));
#983=CARTESIAN_POINT('',(-89.0000,71.9282,-38.0000));
#984=CARTESIAN_POINT('',(-90.6569,70.6569,-38.0000));
#985=CARTESIAN_POINT('',(-91.9282,69.0000,-38.0000));
#986=CARTESIAN_POINT('',(-92.7274,67.0706,-38.0000));
#987=CARTESIAN_POINT('',(-93.0000,65.0000,-38.0000));
#988=CARTESIAN_POINT('',(-92.7274,62.9294,-38.0000));
#989=CARTESIAN_POINT('',(-91.9282,61.0000,-38.0000));
#990=CARTESIAN_POINT('',(-90.6569,59.3431,-38.0000));
#991=CARTESIAN_POINT('',(-89.0000,58.0718,-38.0000));
#992=CARTESIAN_POINT('',(-87.0706,57.2726,-38.0000));
#993=CARTESIAN_POINT('',(-85.0000,57.0000,-38.0000));
#994=CARTESIAN_POINT('',(-82.9294,57.2726,-38.0000));
#995=CARTESIAN_POINT('',(-81.0000,58.0718,-38.0000));
#996=CARTESIAN_POINT('',(-79.3431,59.3431,-38.0000));
#997=CARTESIAN_POINT('',(-78.0718,61.0000,-38.0000));
#998=CARTESIAN_POINT('',(-77.2726,62.9294,-38.0000));
#999=POLY_LOOP('',(#974,#973,#972,#971,#970,#969,#968,#967,#966,#965,#964,#963,#962,#961,#960,#959,#958,#957,#956,#955,#954,#953,#952,#951));
#1000=FACE_OUTER_BOUND('',#999,.T.);
#1001=FACE('',(#1000));
#1002=POLY_LOOP('',(#975,#976,#977,#978,#979,#980,#981,#982,#983,#984,#985,#986,#987,#988,#989,#990,#991,#992,#993,#994,#995,#996,#997,#998));
#1003=FACE_OUTER_BOUND('',#1002,.T.);
#1004=FACE('',(#1003));
#1005=POLY_LOOP('',(#951,#952,#976,#975));
#1006=FACE_OUTER_BOUND('',#1005,.T.);
#1007=FACE('',(#1006));
#1008=POLY_LOOP('',(#952,#953,#977,#976));
#1009=FACE_OUTER_BOUND('',#1008,.T.);
#1010=FACE('',(#1009));
#1011=POLY_LOOP('',(#953,#954,#978,#977));
#1012=FACE_OUTER_BOUND('',#1011,.T.);
#1013=FACE('',(#1012));
#1014=POLY_LOOP('',(#954,#955,#979,#978));
#1015=FACE_OUTER_BOUND('',#1014,.T.);
#1016=FACE('',(#1015));
#1017=POLY_LOOP('',(#955,#956,#980,#979));
#1018=FACE_OUTER_BOUND('',#1017,.T.);
#1019=FACE('',(#1018));
#1020=POLY_LOOP('',(#956,#957,#981,#980));
#1021=FACE_OUTER_BOUND('',#1020,.T.);
#1022=FACE('',(#1021));
#1023=POLY_LOOP('',(#957,#958,#982,#981));
#1024=FACE_OUTER_BOUND('',#1023,.T.);
#1025=FACE('',(#1024));
#1026=POLY_LOOP('',(#958,#959,#983,#982));
#1027=FACE_OUTER_BOUND('',#1026,.T.);
#1028=FACE('',(#1027));
#1029=POLY_LOOP('',(#959,#960,#984,#983));
#1030=FACE_OUTER_BOUND('',#1029,.T.);
#1031=FACE('',(#1030));
#1032=POLY_LOOP('',(#960,#961,#985,#984));
#1033=FACE_OUTER_BOUND('',#1032,.T.);
#1034=FACE('',(#1033));
#1035=POLY_LOOP('',(#961,#962,#986,#985));
#1036=FACE_OUTER_BOUND('',#1035,.T.);
#1037=FACE('',(#1036));
#1038=POLY_LOOP('',(#962,#963,#987,#986));
#1039=FACE_OUTER_BOUND('',#1038,.T.);
#1040=FACE('',(#1039));
#1041=POLY_LOOP('',(#963,#964,#988,#987));
#1042=FACE_OUTER_BOUND('',#1041,.T.);
#1043=FACE('',(#1042));
#1044=POLY_LOOP('',(#964,#965,#989,#988));
#1045=FACE_OUTER_BOUND('',#1044,.T.);
#1046=FACE('',(#1045));
#1047=POLY_LOOP('',(#965,#966,#990,#989));
#1048=FACE_OUTER_BOUND('',#1047,.T.);
#1049=FACE('',(#1048));
#1050=POLY_LOOP('',(#966,#967,#991,#990));
#1051=FACE_OUTER_BOUND('',#1050,.T.);
#1052=FACE('',(#1051));
#1053=POLY_LOOP('',(#967,#968,#992,#991));
#1054=FACE_OUTER_BOUND('',#1053,.T.);
#1055=FACE('',(#1054));
#1056=POLY_LOOP('',(#968,#969,#993,#992));
#1057=FACE_OUTER_BOUND('',#1056,.T.);
#1058=FACE('',(#1057));
#1059=POLY_LOOP('',(#969,#970,#994,#993));
#1060=FACE_OUTER_BOUND('',#1059,.T.);
#1061=FACE('',(#1060));
#1062=POLY_LOOP('',(#970,#971,#995,#994));
#1063=FACE_OUTER_BOUND('',#1062,.T.);
#1064=FACE('',(#1063));
#1065=POLY_LOOP('',(#971,#972,#996,#995));
#1066=FACE_OUTER_BOUND('',#1065,.T.);
#1067=FACE('',(#1066));
#1068=POLY_LOOP('',(#972,#973,#997,#996));
#1069=FACE_OUTER_BOUND('',#1068,.T.);
#1070=FACE('',(#1069));
#1071=POLY_LOOP('',(#973,#974,#998,#997));
#1072=FACE_OUTER_BOUND('',#1071,.T.);
#1073=FACE('',(#1072));
#1074=POLY_LOOP('',(#974,#951,#975,#998));
#1075=FACE_OUTER_BOUND('',#1074,.T.);
#1076=FACE('',(#1075));
#1077=CLOSED_SHELL('',(#1001,#1004,#1007,#1010,#1013,#1016,#1019,#1022,#1025,#1028,#1031,#1034,#1037,#1040,#1043,#1046,#1049,#1052,#1055,#1058,#1061,#1064,#1067,#1070,#1073,#1076));
#1078=FACETED_BREP('RUBBER_FOOT',#1077);
#1079=CARTESIAN_POINT('',(93.0000,-65.0000,-44.0000));
#1080=CARTESIAN_POINT('',(92.7274,-62.9294,-44.0000));
#1081=CARTESIAN_POINT('',(91.9282,-61.0000,-44.0000));
#1082=CARTESIAN_POINT('',(90.6569,-59.3431,-44.0000));
#1083=CARTESIAN_POINT('',(89.0000,-58.0718,-44.0000));
#1084=CARTESIAN_POINT('',(87.0706,-57.2726,-44.0000));
#1085=CARTESIAN_POINT('',(85.0000,-57.0000,-44.0000));
#1086=CARTESIAN_POINT('',(82.9294,-57.2726,-44.0000));
#1087=CARTESIAN_POINT('',(81.0000,-58.0718,-44.0000));
#1088=CARTESIAN_POINT('',(79.3431,-59.3431,-44.0000));
#1089=CARTESIAN_POINT('',(78.0718,-61.0000,-44.0000));
#1090=CARTESIAN_POINT('',(77.2726,-62.9294,-44.0000));
#1091=CARTESIAN_POINT('',(77.0000,-65.0000,-44.0000));
#1092=CARTESIAN_POINT('',(77.2726,-67.0706,-44.0000));
#1093=CARTESIAN_POINT('',(78.0718,-69.0000,-44.0000));
#1094=CARTESIAN_POINT('',(79.3431,-70.6569,-44.0000));
#1095=CARTESIAN_POINT('',(81.0000,-71.9282,-44.0000));
#1096=CARTESIAN_POINT('',(82.9294,-72.7274,-44.0000));
#1097=CARTESIAN_POINT('',(85.0000,-73.0000,-44.0000));
#1098=CARTESIAN_POINT('',(87.0706,-72.7274,-44.0000));
#1099=CARTESIAN_POINT('',(89.0000,-71.9282,-44.0000));
#1100=CARTESIAN_POINT('',(90.6569,-70.6569,-44.0000));
#1101=CARTESIAN_POINT('',(91.9282,-69.0000,-44.0000));
#1102=CARTESIAN_POINT('',(92.7274,-67.0706,-44.0000));
#1103=CARTESIAN_POINT('',(93.0000,-65.0000,-38.0000));
#1104=CARTESIAN_POINT('',(92.7274,-62.9294,-38.0000));
#1105=CARTESIAN_POINT('',(91.9282,-61.0000,-38.0000));
#1106=CARTESIAN_POINT('',(90.6569,-59.3431,-38.0000));
#1107=CARTESIAN_POINT('',(89.0000,-58.0718,-38.0000));
#1108=CARTESIAN_POINT('',(87.0706,-57.2726,-38.0000));
#1109=CARTESIAN_POINT('',(85.0000,-57.0000,-38.0000));
#1110=CARTESIAN_POINT('',(82.9294,-57.2726,-38.0000));
#1111=CARTESIAN_POINT('',(81.0000,-58.0718,-38.0000));
#1112=CARTESIAN_POINT('',(79.3431,-59.3431,-38.0000));
#1113=CARTESIAN_POINT('',(78.0718,-61.0000,-38.0000));
#1114=CARTESIAN_POINT('',(77.2726,-62.9294,-38.0000));
#1115=CARTESIAN_POINT('',(77.0000,-65.0000,-38.0000));
#1116=CARTESIAN_POINT('',(77.2726,-67.0706,-38.0000));
#1117=CARTESIAN_POINT('',(78.0718,-69.0000,-38.0000));
#1118=CARTESIAN_POINT('',(79.3431,-70.6569,-38.0000));
#1119=CARTESIAN_POINT('',(81.0000,-71.9282,-38.0000));
#1120=CARTESIAN_POINT('',(82.9294,-72.7274,-38.0000));
#1121=CARTESIAN_POINT('',(85.0000,-73.0000,-38.0000));
#1122=CARTESIAN_POINT('',(87.0706,-72.7274,-38.0000));
#1123=CARTESIAN_POINT('',(89.0000,-71.9282,-38.0000));
#1124=CARTESIAN_POINT('',(90.6569,-70.6569,-38.0000));
#1125=CARTESIAN_POINT('',(91.9282,-69.0000,-38.0000));
#1126=CARTESIAN_POINT('',(92.7274,-67.0706,-38.0000));
#1127=POLY_LOOP('',(#1102,#1101,#1100,#1099,#1098,#1097,#1096,#1095,#1094,#1093,#1092,#1091,#1090,#1089,#1088,#1087,#1086,#1085,#1084,#1083,#1082,#1081,#1080,#1079));
#1128=FACE_OUTER_BOUND('',#1127,.T.);
#1129=FACE('',(#1128));
#1130=POLY_LOOP('',(#1103,#1104,#1105,#1106,#1107,#1108,#1109,#1110,#1111,#1112,#1113,#1114,#1115,#1116,#1117,#1118,#1119,#1120,#1121,#1122,#1123,#1124,#1125,#1126));
#1131=FACE_OUTER_BOUND('',#1130,.T.);
#1132=FACE('',(#1131));
#1133=POLY_LOOP('',(#1079,#1080,#1104,#1103));
#1134=FACE_OUTER_BOUND('',#1133,.T.);
#1135=FACE('',(#1134));
#1136=POLY_LOOP('',(#1080,#1081,#1105,#1104));
#1137=FACE_OUTER_BOUND('',#1136,.T.);
#1138=FACE('',(#1137));
#1139=POLY_LOOP('',(#1081,#1082,#1106,#1105));
#1140=FACE_OUTER_BOUND('',#1139,.T.);
#1141=FACE('',(#1140));
#1142=POLY_LOOP('',(#1082,#1083,#1107,#1106));
#1143=FACE_OUTER_BOUND('',#1142,.T.);
#1144=FACE('',(#1143));
#1145=POLY_LOOP('',(#1083,#1084,#1108,#1107));
#1146=FACE_OUTER_BOUND('',#1145,.T.);
#1147=FACE('',(#1146));
#1148=POLY_LOOP('',(#1084,#1085,#1109,#1108));
#1149=FACE_OUTER_BOUND('',#1148,.T.);
#1150=FACE('',(#1149));
#1151=POLY_LOOP('',(#1085,#1086,#1110,#1109));
#1152=FACE_OUTER_BOUND('',#1151,.T.);
#1153=FACE('',(#1152));
#1154=POLY_LOOP('',(#1086,#1087,#1111,#1110));
#1155=FACE_OUTER_BOUND('',#1154,.T.);
#1156=FACE('',(#1155));
#1157=POLY_LOOP('',(#1087,#1088,#1112,#1111));
#1158=FACE_OUTER_BOUND('',#1157,.T.);
#1159=FACE('',(#1158));
#1160=POLY_LOOP('',(#1088,#1089,#1113,#1112));
#1161=FACE_OUTER_BOUND('',#1160,.T.);
#1162=FACE('',(#1161));
#1163=POLY_LOOP('',(#1089,#1090,#1114,#1113));
#1164=FACE_OUTER_BOUND('',#1163,.T.);
#1165=FACE('',(#1164));
#1166=POLY_LOOP('',(#1090,#1091,#1115,#1114));
#1167=FACE_OUTER_BOUND('',#1166,.T.);
#1168=FACE('',(#1167));
#1169=POLY_LOOP('',(#1091,#1092,#1116,#1115));
#1170=FACE_OUTER_BOUND('',#1169,.T.);
#1171=FACE('',(#1170));
#1172=POLY_LOOP('',(#1092,#1093,#1117,#1116));
#1173=FACE_OUTER_BOUND('',#1172,.T.);
#1174=FACE('',(#1173));
#1175=POLY_LOOP('',(#1093,#1094,#1118,#1117));
#1176=FACE_OUTER_BOUND('',#1175,.T.);
#1177=FACE('',(#1176));
#1178=POLY_LOOP('',(#1094,#1095,#1119,#1118));
#1179=FACE_OUTER_BOUND('',#1178,.T.);
#1180=FACE('',(#1179));
#1181=POLY_LOOP('',(#1095,#1096,#1120,#1119));
#1182=FACE_OUTER_BOUND('',#1181,.T.);
#1183=FACE('',(#1182));
#1184=POLY_LOOP('',(#1096,#1097,#1121,#1120));
#1185=FACE_OUTER_BOUND('',#1184,.T.);
#1186=FACE('',(#1185));
#1187=POLY_LOOP('',(#1097,#1098,#1122,#1121));
#1188=FACE_OUTER_BOUND('',#1187,.T.);
#1189=FACE('',(#1188));
#1190=POLY_LOOP('',(#1098,#1099,#1123,#1122));
#1191=FACE_OUTER_BOUND('',#1190,.T.);
#1192=FACE('',(#1191));
#1193=POLY_LOOP('',(#1099,#1100,#1124,#1123));
#1194=FACE_OUTER_BOUND('',#1193,.T.);
#1195=FACE('',(#1194));
#1196=POLY_LOOP('',(#1100,#1101,#1125,#1124));
#1197=FACE_OUTER_BOUND('',#1196,.T.);
#1198=FACE('',(#1197));
#1199=POLY_LOOP('',(#1101,#1102,#1126,#1125));
#1200=FACE_OUTER_BOUND('',#1199,.T.);
#1201=FACE('',(#1200));
#1202=POLY_LOOP('',(#1102,#1079,#1103,#1126));
#1203=FACE_OUTER_BOUND('',#1202,.T.);
#1204=FACE('',(#1203));
#1205=CLOSED_SHELL('',(#1129,#1132,#1135,#1138,#1141,#1144,#1147,#1150,#1153,#1156,#1159,#1162,#1165,#1168,#1171,#1174,#1177,#1180,#1183,#1186,#1189,#1192,#1195,#1198,#1201,#1204));
#1206=FACETED_BREP('RUBBER_FOOT',#1205);
#1207=CARTESIAN_POINT('',(93.0000,65.0000,-44.0000));
#1208=CARTESIAN_POINT('',(92.7274,67.0706,-44.0000));
#1209=CARTESIAN_POINT('',(91.9282,69.0000,-44.0000));
#1210=CARTESIAN_POINT('',(90.6569,70.6569,-44.0000));
#1211=CARTESIAN_POINT('',(89.0000,71.9282,-44.0000));
#1212=CARTESIAN_POINT('',(87.0706,72.7274,-44.0000));
#1213=CARTESIAN_POINT('',(85.0000,73.0000,-44.0000));
#1214=CARTESIAN_POINT('',(82.9294,72.7274,-44.0000));
#1215=CARTESIAN_POINT('',(81.0000,71.9282,-44.0000));
#1216=CARTESIAN_POINT('',(79.3431,70.6569,-44.0000));
#1217=CARTESIAN_POINT('',(78.0718,69.0000,-44.0000));
#1218=CARTESIAN_POINT('',(77.2726,67.0706,-44.0000));
#1219=CARTESIAN_POINT('',(77.0000,65.0000,-44.0000));
#1220=CARTESIAN_POINT('',(77.2726,62.9294,-44.0000));
#1221=CARTESIAN_POINT('',(78.0718,61.0000,-44.0000));
#1222=CARTESIAN_POINT('',(79.3431,59.3431,-44.0000));
#1223=CARTESIAN_POINT('',(81.0000,58.0718,-44.0000));
#1224=CARTESIAN_POINT('',(82.9294,57.2726,-44.0000));
#1225=CARTESIAN_POINT('',(85.0000,57.0000,-44.0000));
#1226=CARTESIAN_POINT('',(87.0706,57.2726,-44.0000));
#1227=CARTESIAN_POINT('',(89.0000,58.0718,-44.0000));
#1228=CARTESIAN_POINT('',(90.6569,59.3431,-44.0000));
#1229=CARTESIAN_POINT('',(91.9282,61.0000,-44.0000));
#1230=CARTESIAN_POINT('',(92.7274,62.9294,-44.0000));
#1231=CARTESIAN_POINT('',(93.0000,65.0000,-38.0000));
#1232=CARTESIAN_POINT('',(92.7274,67.0706,-38.0000));
#1233=CARTESIAN_POINT('',(91.9282,69.0000,-38.0000));
#1234=CARTESIAN_POINT('',(90.6569,70.6569,-38.0000));
#1235=CARTESIAN_POINT('',(89.0000,71.9282,-38.0000));
#1236=CARTESIAN_POINT('',(87.0706,72.7274,-38.0000));
#1237=CARTESIAN_POINT('',(85.0000,73.0000,-38.0000));
#1238=CARTESIAN_POINT('',(82.9294,72.7274,-38.0000));
#1239=CARTESIAN_POINT('',(81.0000,71.9282,-38.0000));
#1240=CARTESIAN_POINT('',(79.3431,70.6569,-38.0000));
#1241=CARTESIAN_POINT('',(78.0718,69.0000,-38.0000));
#1242=CARTESIAN_POINT('',(77.2726,67.0706,-38.0000));
#1243=CARTESIAN_POINT('',(77.0000,65.0000,-38.0000));
#1244=CARTESIAN_POINT('',(77.2726,62.9294,-38.0000));
#1245=CARTESIAN_POINT('',(78.0718,61.0000,-38.0000));
#1246=CARTESIAN_POINT('',(79.3431,59.3431,-38.0000));
#1247=CARTESIAN_POINT('',(81.0000,58.0718,-38.0000));
#1248=CARTESIAN_POINT('',(82.9294,57.2726,-38.0000));
#1249=CARTESIAN_POINT('',(85.0000,57.0000,-38.0000));
#1250=CARTESIAN_POINT('',(87.0706,57.2726,-38.0000));
#1251=CARTESIAN_POINT('',(89.0000,58.0718,-38.0000));
#1252=CARTESIAN_POINT('',(90.6569,59.3431,-38.0000));
#1253=CARTESIAN_POINT('',(91.9282,61.0000,-38.0000));
#1254=CARTESIAN_POINT('',(92.7274,62.9294,-38.0000));
#1255=POLY_LOOP('',(#1230,#1229,#1228,#1227,#1226,#1225,#1224,#1223,#1222,#1221,#1220,#1219,#1218,#1217,#1216,#1215,#1214,#1213,#1212,#1211,#1210,#1209,#1208,#1207));
#1256=FACE_OUTER_BOUND('',#1255,.T.);
#1257=FACE('',(#1256));
#1258=POLY_LOOP('',(#1231,#1232,#1233,#1234,#1235,#1236,#1237,#1238,#1239,#1240,#1241,#1242,#1243,#1244,#1245,#1246,#1247,#1248,#1249,#1250,#1251,#1252,#1253,#1254));
#1259=FACE_OUTER_BOUND('',#1258,.T.);
#1260=FACE('',(#1259));
#1261=POLY_LOOP('',(#1207,#1208,#1232,#1231));
#1262=FACE_OUTER_BOUND('',#1261,.T.);
#1263=FACE('',(#1262));
#1264=POLY_LOOP('',(#1208,#1209,#1233,#1232));
#1265=FACE_OUTER_BOUND('',#1264,.T.);
#1266=FACE('',(#1265));
#1267=POLY_LOOP('',(#1209,#1210,#1234,#1233));
#1268=FACE_OUTER_BOUND('',#1267,.T.);
#1269=FACE('',(#1268));
#1270=POLY_LOOP('',(#1210,#1211,#1235,#1234));
#1271=FACE_OUTER_BOUND('',#1270,.T.);
#1272=FACE('',(#1271));
#1273=POLY_LOOP('',(#1211,#1212,#1236,#1235));
#1274=FACE_OUTER_BOUND('',#1273,.T.);
#1275=FACE('',(#1274));
#1276=POLY_LOOP('',(#1212,#1213,#1237,#1236));
#1277=FACE_OUTER_BOUND('',#1276,.T.);
#1278=FACE('',(#1277));
#1279=POLY_LOOP('',(#1213,#1214,#1238,#1237));
#1280=FACE_OUTER_BOUND('',#1279,.T.);
#1281=FACE('',(#1280));
#1282=POLY_LOOP('',(#1214,#1215,#1239,#1238));
#1283=FACE_OUTER_BOUND('',#1282,.T.);
#1284=FACE('',(#1283));
#1285=POLY_LOOP('',(#1215,#1216,#1240,#1239));
#1286=FACE_OUTER_BOUND('',#1285,.T.);
#1287=FACE('',(#1286));
#1288=POLY_LOOP('',(#1216,#1217,#1241,#1240));
#1289=FACE_OUTER_BOUND('',#1288,.T.);
#1290=FACE('',(#1289));
#1291=POLY_LOOP('',(#1217,#1218,#1242,#1241));
#1292=FACE_OUTER_BOUND('',#1291,.T.);
#1293=FACE('',(#1292));
#1294=POLY_LOOP('',(#1218,#1219,#1243,#1242));
#1295=FACE_OUTER_BOUND('',#1294,.T.);
#1296=FACE('',(#1295));
#1297=POLY_LOOP('',(#1219,#1220,#1244,#1243));
#1298=FACE_OUTER_BOUND('',#1297,.T.);
#1299=FACE('',(#1298));
#1300=POLY_LOOP('',(#1220,#1221,#1245,#1244));
#1301=FACE_OUTER_BOUND('',#1300,.T.);
#1302=FACE('',(#1301));
#1303=POLY_LOOP('',(#1221,#1222,#1246,#1245));
#1304=FACE_OUTER_BOUND('',#1303,.T.);
#1305=FACE('',(#1304));
#1306=POLY_LOOP('',(#1222,#1223,#1247,#1246));
#1307=FACE_OUTER_BOUND('',#1306,.T.);
#1308=FACE('',(#1307));
#1309=POLY_LOOP('',(#1223,#1224,#1248,#1247));
#1310=FACE_OUTER_BOUND('',#1309,.T.);
#1311=FACE('',(#1310));
#1312=POLY_LOOP('',(#1224,#1225,#1249,#1248));
#1313=FACE_OUTER_BOUND('',#1312,.T.);
#1314=FACE('',(#1313));
#1315=POLY_LOOP('',(#1225,#1226,#1250,#1249));
#1316=FACE_OUTER_BOUND('',#1315,.T.);
#1317=FACE('',(#1316));
#1318=POLY_LOOP('',(#1226,#1227,#1251,#1250));
#1319=FACE_OUTER_BOUND('',#1318,.T.);
#1320=FACE('',(#1319));
#1321=POLY_LOOP('',(#1227,#1228,#1252,#1251));
#1322=FACE_OUTER_BOUND('',#1321,.T.);
#1323=FACE('',(#1322));
#1324=POLY_LOOP('',(#1228,#1229,#1253,#1252));
#1325=FACE_OUTER_BOUND('',#1324,.T.);
#1326=FACE('',(#1325));
#1327=POLY_LOOP('',(#1229,#1230,#1254,#1253));
#1328=FACE_OUTER_BOUND('',#1327,.T.);
#1329=FACE('',(#1328));
#1330=POLY_LOOP('',(#1230,#1207,#1231,#1254));
#1331=FACE_OUTER_BOUND('',#1330,.T.);
#1332=FACE('',(#1331));
#1333=CLOSED_SHELL('',(#1257,#1260,#1263,#1266,#1269,#1272,#1275,#1278,#1281,#1284,#1287,#1290,#1293,#1296,#1299,#1302,#1305,#1308,#1311,#1314,#1317,#1320,#1323,#1326,#1329,#1332));
#1334=FACETED_BREP('RUBBER_FOOT',#1333);
#1335=CARTESIAN_POINT('',(5.0000,0.0000,-41.0000));
#1336=CARTESIAN_POINT('',(4.8296,1.2941,-41.0000));
#1337=CARTESIAN_POINT('',(4.3301,2.5000,-41.0000));
#1338=CARTESIAN_POINT('',(3.5355,3.5355,-41.0000));
#1339=CARTESIAN_POINT('',(2.5000,4.3301,-41.0000));
#1340=CARTESIAN_POINT('',(1.2941,4.8296,-41.0000));
#1341=CARTESIAN_POINT('',(0.0000,5.0000,-41.0000));
#1342=CARTESIAN_POINT('',(-1.2941,4.8296,-41.0000));
#1343=CARTESIAN_POINT('',(-2.5000,4.3301,-41.0000));
#1344=CARTESIAN_POINT('',(-3.5355,3.5355,-41.0000));
#1345=CARTESIAN_POINT('',(-4.3301,2.5000,-41.0000));
#1346=CARTESIAN_POINT('',(-4.8296,1.2941,-41.0000));
#1347=CARTESIAN_POINT('',(-5.0000,0.0000,-41.0000));
#1348=CARTESIAN_POINT('',(-4.8296,-1.2941,-41.0000));
#1349=CARTESIAN_POINT('',(-4.3301,-2.5000,-41.0000));
#1350=CARTESIAN_POINT('',(-3.5355,-3.5355,-41.0000));
#1351=CARTESIAN_POINT('',(-2.5000,-4.3301,-41.0000));
#1352=CARTESIAN_POINT('',(-1.2941,-4.8296,-41.0000));
#1353=CARTESIAN_POINT('',(-0.0000,-5.0000,-41.0000));
#1354=CARTESIAN_POINT('',(1.2941,-4.8296,-41.0000));
#1355=CARTESIAN_POINT('',(2.5000,-4.3301,-41.0000));
#1356=CARTESIAN_POINT('',(3.5355,-3.5355,-41.0000));
#1357=CARTESIAN_POINT('',(4.3301,-2.5000,-41.0000));
#1358=CARTESIAN_POINT('',(4.8296,-1.2941,-41.0000));
#1359=CARTESIAN_POINT('',(5.0000,0.0000,-38.0000));
#1360=CARTESIAN_POINT('',(4.8296,1.2941,-38.0000));
#1361=CARTESIAN_POINT('',(4.3301,2.5000,-38.0000));
#1362=CARTESIAN_POINT('',(3.5355,3.5355,-38.0000));
#1363=CARTESIAN_POINT('',(2.5000,4.3301,-38.0000));
#1364=CARTESIAN_POINT('',(1.2941,4.8296,-38.0000));
#1365=CARTESIAN_POINT('',(0.0000,5.0000,-38.0000));
#1366=CARTESIAN_POINT('',(-1.2941,4.8296,-38.0000));
#1367=CARTESIAN_POINT('',(-2.5000,4.3301,-38.0000));
#1368=CARTESIAN_POINT('',(-3.5355,3.5355,-38.0000));
#1369=CARTESIAN_POINT('',(-4.3301,2.5000,-38.0000));
#1370=CARTESIAN_POINT('',(-4.8296,1.2941,-38.0000));
#1371=CARTESIAN_POINT('',(-5.0000,0.0000,-38.0000));
#1372=CARTESIAN_POINT('',(-4.8296,-1.2941,-38.0000));
#1373=CARTESIAN_POINT('',(-4.3301,-2.5000,-38.0000));
#1374=CARTESIAN_POINT('',(-3.5355,-3.5355,-38.0000));
#1375=CARTESIAN_POINT('',(-2.5000,-4.3301,-38.0000));
#1376=CARTESIAN_POINT('',(-1.2941,-4.8296,-38.0000));
#1377=CARTESIAN_POINT('',(-0.0000,-5.0000,-38.0000));
#1378=CARTESIAN_POINT('',(1.2941,-4.8296,-38.0000));
#1379=CARTESIAN_POINT('',(2.5000,-4.3301,-38.0000));
#1380=CARTESIAN_POINT('',(3.5355,-3.5355,-38.0000));
#1381=CARTESIAN_POINT('',(4.3301,-2.5000,-38.0000));
#1382=CARTESIAN_POINT('',(4.8296,-1.2941,-38.0000));
#1383=POLY_LOOP('',(#1358,#1357,#1356,#1355,#1354,#1353,#1352,#1351,#1350,#1349,#1348,#1347,#1346,#1345,#1344,#1343,#1342,#1341,#1340,#1339,#1338,#1337,#1336,#1335));
#1384=FACE_OUTER_BOUND('',#1383,.T.);
#1385=FACE('',(#1384));
#1386=POLY_LOOP('',(#1359,#1360,#1361,#1362,#1363,#1364,#1365,#1366,#1367,#1368,#1369,#1370,#1371,#1372,#1373,#1374,#1375,#1376,#1377,#1378,#1379,#1380,#1381,#1382));
#1387=FACE_OUTER_BOUND('',#1386,.T.);
#1388=FACE('',(#1387));
#1389=POLY_LOOP('',(#1335,#1336,#1360,#1359));
#1390=FACE_OUTER_BOUND('',#1389,.T.);
#1391=FACE('',(#1390));
#1392=POLY_LOOP('',(#1336,#1337,#1361,#1360));
#1393=FACE_OUTER_BOUND('',#1392,.T.);
#1394=FACE('',(#1393));
#1395=POLY_LOOP('',(#1337,#1338,#1362,#1361));
#1396=FACE_OUTER_BOUND('',#1395,.T.);
#1397=FACE('',(#1396));
#1398=POLY_LOOP('',(#1338,#1339,#1363,#1362));
#1399=FACE_OUTER_BOUND('',#1398,.T.);
#1400=FACE('',(#1399));
#1401=POLY_LOOP('',(#1339,#1340,#1364,#1363));
#1402=FACE_OUTER_BOUND('',#1401,.T.);
#1403=FACE('',(#1402));
#1404=POLY_LOOP('',(#1340,#1341,#1365,#1364));
#1405=FACE_OUTER_BOUND('',#1404,.T.);
#1406=FACE('',(#1405));
#1407=POLY_LOOP('',(#1341,#1342,#1366,#1365));
#1408=FACE_OUTER_BOUND('',#1407,.T.);
#1409=FACE('',(#1408));
#1410=POLY_LOOP('',(#1342,#1343,#1367,#1366));
#1411=FACE_OUTER_BOUND('',#1410,.T.);
#1412=FACE('',(#1411));
#1413=POLY_LOOP('',(#1343,#1344,#1368,#1367));
#1414=FACE_OUTER_BOUND('',#1413,.T.);
#1415=FACE('',(#1414));
#1416=POLY_LOOP('',(#1344,#1345,#1369,#1368));
#1417=FACE_OUTER_BOUND('',#1416,.T.);
#1418=FACE('',(#1417));
#1419=POLY_LOOP('',(#1345,#1346,#1370,#1369));
#1420=FACE_OUTER_BOUND('',#1419,.T.);
#1421=FACE('',(#1420));
#1422=POLY_LOOP('',(#1346,#1347,#1371,#1370));
#1423=FACE_OUTER_BOUND('',#1422,.T.);
#1424=FACE('',(#1423));
#1425=POLY_LOOP('',(#1347,#1348,#1372,#1371));
#1426=FACE_OUTER_BOUND('',#1425,.T.);
#1427=FACE('',(#1426));
#1428=POLY_LOOP('',(#1348,#1349,#1373,#1372));
#1429=FACE_OUTER_BOUND('',#1428,.T.);
#1430=FACE('',(#1429));
#1431=POLY_LOOP('',(#1349,#1350,#1374,#1373));
#1432=FACE_OUTER_BOUND('',#1431,.T.);
#1433=FACE('',(#1432));
#1434=POLY_LOOP('',(#1350,#1351,#1375,#1374));
#1435=FACE_OUTER_BOUND('',#1434,.T.);
#1436=FACE('',(#1435));
#1437=POLY_LOOP('',(#1351,#1352,#1376,#1375));
#1438=FACE_OUTER_BOUND('',#1437,.T.);
#1439=FACE('',(#1438));
#1440=POLY_LOOP('',(#1352,#1353,#1377,#1376));
#1441=FACE_OUTER_BOUND('',#1440,.T.);
#1442=FACE('',(#1441));
#1443=POLY_LOOP('',(#1353,#1354,#1378,#1377));
#1444=FACE_OUTER_BOUND('',#1443,.T.);
#1445=FACE('',(#1444));
#1446=POLY_LOOP('',(#1354,#1355,#1379,#1378));
#1447=FACE_OUTER_BOUND('',#1446,.T.);
#1448=FACE('',(#1447));
#1449=POLY_LOOP('',(#1355,#1356,#1380,#1379));
#1450=FACE_OUTER_BOUND('',#1449,.T.);
#1451=FACE('',(#1450));
#1452=POLY_LOOP('',(#1356,#1357,#1381,#1380));
#1453=FACE_OUTER_BOUND('',#1452,.T.);
#1454=FACE('',(#1453));
#1455=POLY_LOOP('',(#1357,#1358,#1382,#1381));
#1456=FACE_OUTER_BOUND('',#1455,.T.);
#1457=FACE('',(#1456));
#1458=POLY_LOOP('',(#1358,#1335,#1359,#1382));
#1459=FACE_OUTER_BOUND('',#1458,.T.);
#1460=FACE('',(#1459));
#1461=CLOSED_SHELL('',(#1385,#1388,#1391,#1394,#1397,#1400,#1403,#1406,#1409,#1412,#1415,#1418,#1421,#1424,#1427,#1430,#1433,#1436,#1439,#1442,#1445,#1448,#1451,#1454,#1457,#1460));
#1462=FACETED_BREP('TRIPOD_MOUNT',#1461);
#1463=SHAPE_REPRESENTATION('',(#42,#170,#298,#326,#354,#382,#410,#438,#566,#694,#822,#950,#1078,#1206,#1334,#1462),#14);
#1464=SHAPE_DEFINITION_REPRESENTATION(#8,#1463);
ENDSEC;
END-ISO-10303-21;
